<svg height="942.723" viewBox="0 0 1132.001 942.723" width="1132.001" xmlns="http://www.w3.org/2000/svg"><rect fill="#5a38fd" height="95.745" rx="14.259" transform="matrix(-.679 -.735 .735 -.679 66.56 560.237)" width="28.518" x="141.604" y="217.682"/><rect fill="#82b1ff" height="41.103" rx="13.277" width="39.727" x="410.165" y="876.67"/><rect fill="#82b1ff" height="41.103" rx="13.277" width="39.727" x="723.173" y="876.67"/><rect fill="#5a38fd" height="28.944" rx="14.472" width="378.154" x="399.663" y="244.564"/><rect fill="#fff" height="42.659" rx="11.354" width="337.872" x="419.463" y="237.808"/><path d="m745.981 283.467h-315.164a14.37 14.37 0 0 1 -14.354-14.353v-19.951a14.371 14.371 0 0 1 14.354-14.355h315.164a14.371 14.371 0 0 1 14.354 14.355v19.951a14.37 14.37 0 0 1 -14.354 14.353zm-315.164-42.659a8.364 8.364 0 0 0 -8.354 8.355v19.951a8.363 8.363 0 0 0 8.354 8.353h315.164a8.362 8.362 0 0 0 8.354-8.353v-19.951a8.364 8.364 0 0 0 -8.354-8.355z" fill="#222433"/><rect fill="#5a38fd" height="95.745" rx="21.447" transform="matrix(-.99999722 .00235619 -.00235619 -.99999722 216.521 528.672)" width="42.894" x="86.502" y="216.591"/><path d="m121.289 175.92 45.3-32.2-66.256-93.234-8.177-11.506a86.636 86.636 0 0 0 -92.156-33.73z" fill="#82b1ff"/><rect fill="#fff" height="140.027" rx="8.606" transform="matrix(.8151278 -.57928117 .57928117 .8151278 -95.066 141.933)" width="47.489" x="151.088" y="149.892"/><path d="m198.1 290.33a11.847 11.847 0 0 1 -1.971-.166 11.531 11.531 0 0 1 -7.527-4.71l-71.142-100.11a11.631 11.631 0 0 1 2.74-16.184l24.679-17.539a11.62 11.62 0 0 1 16.184 2.737l71.144 100.109a11.621 11.621 0 0 1 -2.737 16.185l-24.681 17.538a11.5 11.5 0 0 1 -6.689 2.14zm-46.508-134.853a5.581 5.581 0 0 0 -3.24 1.034l-24.679 17.539a5.613 5.613 0 0 0 -1.322 7.818l71.149 100.109a5.629 5.629 0 0 0 7.818 1.322l24.679-17.538a5.614 5.614 0 0 0 1.323-7.818l-71.15-100.109a5.6 5.6 0 0 0 -4.578-2.357z" fill="#222433"/><rect fill="#5a38fd" height="95.745" rx="14.259" transform="matrix(.54098915 -.84102957 .84102957 .54098915 249.464 983.219)" width="28.518" x="1011.229" y="215.196"/><rect fill="#5a38fd" height="95.745" rx="14.259" transform="matrix(.97593199 -.21807511 .21807511 .97593199 -21.769 247.497)" width="28.518" x="1096.154" y="174.502"/><rect fill="#5a38fd" height="95.745" rx="21.447" transform="matrix(.67682458 .73614434 -.73614434 .67682458 552.268 -714.358)" width="42.894" x="1068.278" y="223.934"/><g fill="#82b1ff"><rect height="56.293" rx="28.146" width="248.575" x="728.16" y="445.731"/><rect height="56.293" rx="28.146" transform="matrix(.54098915 -.84102957 .84102957 .54098915 128.518 1022.387)" width="248.575" x="876.611" y="365.308"/><rect height="56.293" rx="28.146" transform="matrix(-1 0 -0 -1 641.486 947.755)" width="248.575" x="196.455" y="445.731"/><rect height="56.293" rx="28.146" transform="matrix(-.54098915 -.84102957 .84102957 -.54098915 -65.407 751.211)" width="248.575" x="48.004" y="365.308"/><rect height="156.255" rx="45.066" width="90.133" x="543.673" y="303.383"/></g><ellipse cx="588.74" cy="270.064" fill="#fff" rx="150.277" ry="101.447"/><path d="m588.74 374.51c-40.732 0-79.066-10.734-107.94-30.226-29.236-19.736-45.337-46.095-45.337-74.22s16.1-54.484 45.337-74.221c28.874-19.492 67.208-30.226 107.94-30.226s79.065 10.734 107.94 30.226c29.236 19.737 45.336 46.1 45.336 74.221s-16.1 54.484-45.336 74.22c-28.874 19.492-67.208 30.226-107.94 30.226zm0-202.893c-81.209 0-147.277 44.163-147.277 98.447s66.068 98.446 147.277 98.446 147.276-44.163 147.276-98.446-66.068-98.447-147.276-98.447z" fill="#222433"/><path d="m487.332 577.596h199.149v334.936h-199.149z" fill="#fff"/><path d="m686.481 915.532h-199.149a3 3 0 0 1 -3-3v-334.932a3 3 0 0 1 3-3h199.149a3 3 0 0 1 3 3v334.932a3 3 0 0 1 -3 3zm-196.149-6h193.149v-328.932h-193.149z" fill="#222433"/><path d="m623.21 290.808a3 3 0 0 1 -2.29-4.936l19.08-22.585a3 3 0 0 1 2.26-1.064h.032a3 3 0 0 1 2.25 1.017l19.628 22.27a3 3 0 1 1 -4.5 3.967l-17.329-19.662-16.841 19.93a3 3 0 0 1 -2.29 1.063z" fill="#222433"/><path d="m520.65 290.808a3 3 0 0 1 -2.29-4.936l19.083-22.585a3 3 0 0 1 2.26-1.064h.032a3 3 0 0 1 2.25 1.017l19.628 22.27a3 3 0 1 1 -4.5 3.967l-17.329-19.662-16.84 19.93a2.992 2.992 0 0 1 -2.294 1.063z" fill="#222433"/><rect fill="#fff" height="389.333" rx="114.485" width="403.234" x="387.782" y="393.455"/><path d="m676.531 785.788h-174.263a117.619 117.619 0 0 1 -117.486-117.488v-160.36a117.619 117.619 0 0 1 117.486-117.485h174.263a117.619 117.619 0 0 1 117.485 117.485v160.36a117.619 117.619 0 0 1 -117.485 117.488zm-174.263-389.333a111.611 111.611 0 0 0 -111.486 111.485v160.36a111.613 111.613 0 0 0 111.486 111.488h174.263a111.612 111.612 0 0 0 111.485-111.488v-160.36a111.611 111.611 0 0 0 -111.485-111.485z" fill="#222433"/><path d="m686.481 65.681a43.912 43.912 0 0 0 -59.833-40.927 43.918 43.918 0 0 0 -76.54 1.262 43.916 43.916 0 1 0 -26.071 82.984v67.492h130.724v-68.625a43.925 43.925 0 0 0 31.72-42.186z" fill="#fff"/><path d="m654.761 179.489h-130.724a3 3 0 0 1 -3-3v-65.017a46.918 46.918 0 1 1 27.825-89.283 46.914 46.914 0 0 1 79.051-1.077 46.914 46.914 0 0 1 29.848 88.953v66.424a3 3 0 0 1 -3 3zm-127.724-6h124.724v-65.622a3 3 0 0 1 2.168-2.883 40.914 40.914 0 1 0 -26.193-77.435 3 3 0 0 1 -3.677-1.279 40.918 40.918 0 0 0 -71.314 1.176 3 3 0 0 1 -3.928 1.278 40.539 40.539 0 0 0 -17.57-3.958 40.913 40.913 0 0 0 -6.72 81.271 3 3 0 0 1 2.51 2.96z" fill="#222433"/><rect fill="#5a38fd" height="93.66" rx="28.115" width="56.23" x="427.777" y="849.064"/><rect fill="#5a38fd" height="93.66" rx="28.115" width="56.23" x="689.806" y="849.064"/><circle cx="225.74" cy="471.878" fill="#fff" r="39.404"/><path d="m225.74 514.282a42.4 42.4 0 1 1 42.4-42.405 42.453 42.453 0 0 1 -42.4 42.405zm0-78.809a36.4 36.4 0 1 0 36.4 36.4 36.446 36.446 0 0 0 -36.4-36.4z" fill="#222433"/><circle cx="946.898" cy="471.878" fill="#fff" r="39.404"/><path d="m946.9 514.282a42.4 42.4 0 1 1 42.4-42.405 42.452 42.452 0 0 1 -42.4 42.405zm0-78.809a36.4 36.4 0 1 0 36.4 36.4 36.446 36.446 0 0 0 -36.4-36.4z" fill="#222433"/><circle cx="1064.892" cy="293.968" fill="#fff" r="39.404"/><path d="m1064.892 336.373a42.4 42.4 0 1 1 42.4-42.4 42.453 42.453 0 0 1 -42.4 42.4zm0-78.809a36.4 36.4 0 1 0 36.4 36.4 36.446 36.446 0 0 0 -36.4-36.4z" fill="#222433"/><circle cx="112.926" cy="303.194" fill="#fff" r="39.404"/><path d="m112.926 345.6a42.4 42.4 0 1 1 42.4-42.4 42.452 42.452 0 0 1 -42.4 42.4zm0-78.808a36.4 36.4 0 1 0 36.4 36.4 36.446 36.446 0 0 0 -36.4-36.402z" fill="#222433"/><path d="m437.013 717.372 56.194-258.323h192.389l56.195 258.323z" fill="#82b1ff"/><path d="m492.062 390.455h16.316v149.226h-16.316z" fill="#82b1ff"/><path d="m669.104 390.455h16.316v149.226h-16.316z" fill="#82b1ff"/><rect fill="#5a38fd" height="95.745" rx="14.259" transform="matrix(-.50203913 -.8648449 .8648449 -.50203913 9.853 437.767)" width="28.518" x="116.697" y="168.175"/></svg>