<svg viewBox="0 0 883 648" fill="none" xmlns="http://www.w3.org/2000/svg">
<g clip-path="url(#clip0_657_3930)">
<path d="M453.786 591.968C572.029 591.968 667.884 587.385 667.884 581.732C667.884 576.079 572.029 571.496 453.786 571.496C335.543 571.496 239.688 576.079 239.688 581.732C239.688 587.385 335.543 591.968 453.786 591.968Z" fill="#040825"/>
</g>
<g clip-path="url(#clip1_657_3930)">
<path d="M422.274 247.854L384.529 244.385L397.457 201.086C399.61 193.945 406.211 189.167 413.216 189.862C421.194 190.651 426.803 198.213 425.742 206.748L422.274 247.854Z" fill="#F5B7A6"/>
<path d="M422.154 249.134L384.409 245.665L383.287 244.02L396.216 200.718C398.562 192.935 405.767 187.828 413.346 188.581C415.333 188.781 417.259 189.376 419.008 190.33C420.758 191.285 422.296 192.58 423.531 194.138C424.937 195.93 425.97 197.981 426.571 200.173C427.172 202.364 427.329 204.652 427.032 206.904L423.57 247.961L422.154 249.134ZM386.217 243.25L421.093 246.455L424.451 206.64C424.712 204.72 424.586 202.768 424.08 200.897C423.573 199.027 422.697 197.275 421.503 195.743C420.483 194.454 419.213 193.382 417.767 192.591C416.321 191.8 414.729 191.306 413.087 191.139C406.742 190.512 400.688 194.85 398.697 201.455C398.6 201.777 388.488 235.648 386.217 243.25Z" fill="#040825"/>
<path d="M417.462 205.809C422.761 206.166 425.867 204.422 425.867 204.422C425.751 196.878 420.459 190.576 413.215 189.857C406.21 189.164 399.608 193.942 397.456 201.081L392.684 217.064C392.684 217.064 397.292 216.052 400.838 210.758C403.799 211.547 406.922 211.501 409.858 210.627C412.794 209.753 415.427 208.085 417.462 205.809Z" fill="#040825"/>
<path d="M392.964 218.324L391.443 216.704L392.201 214.166L396.216 200.719C398.562 192.935 405.768 187.828 413.347 188.581C421.097 189.352 427.037 196.149 427.165 204.403L426.508 205.54C423.866 206.794 420.939 207.34 418.018 207.125C415.928 209.329 413.298 210.956 410.384 211.849C407.471 212.741 404.374 212.869 401.397 212.218C397.685 217.236 393.164 218.28 392.964 218.324ZM411.867 191.079C405.978 191.079 400.56 195.277 398.697 201.455L394.704 214.826C396.743 213.65 398.476 212.014 399.761 210.051L401.172 209.521C403.891 210.261 406.765 210.229 409.467 209.43C412.169 208.631 414.591 207.096 416.458 204.999L417.551 204.527C419.919 204.726 422.303 204.412 424.537 203.608C424.065 197.042 419.268 191.751 413.088 191.139C412.68 191.098 412.272 191.079 411.867 191.079Z" fill="#040825"/>
<path d="M425.771 206.369C426.622 197.99 421.075 190.637 413.216 189.86C406.211 189.167 399.61 193.945 397.457 201.084L396.469 204.394L425.771 206.369Z" fill="#F6A4BB"/>
<path d="M425.683 207.651L396.38 205.68L395.227 204.032C395.831 202.016 396.198 200.777 396.216 200.718C398.562 192.936 405.765 187.831 413.346 188.581C415.299 188.778 417.193 189.358 418.919 190.286C420.645 191.215 422.168 192.475 423.4 193.992C424.813 195.733 425.864 197.735 426.492 199.882C427.12 202.03 427.312 204.279 427.058 206.501L425.683 207.651ZM398.169 203.222L424.556 204.999C424.65 201.6 423.53 198.278 421.395 195.62C420.378 194.364 419.12 193.322 417.694 192.553C416.267 191.783 414.702 191.303 413.087 191.139C406.741 190.511 400.688 194.85 398.697 201.455L398.169 203.222Z" fill="#040825"/>
<path d="M424.566 198.405C425.642 200.916 426.058 203.658 425.775 206.373L430.028 206.659C431.634 206.767 433.244 206.531 434.749 205.966C436.254 205.402 437.619 204.522 438.751 203.387L438.773 203.365L438.225 202.016C432.634 201.924 427.927 201.2 424.566 198.405Z" fill="#040825"/>
<path d="M430.782 207.966C430.5 207.966 430.218 207.956 429.933 207.937L425.681 207.65L424.481 206.244C424.739 203.747 424.358 201.226 423.374 198.914L425.396 197.424C428.063 199.642 431.904 200.631 438.24 200.731L439.419 201.536L439.968 202.883L439.687 204.27C438.523 205.44 437.137 206.369 435.608 207.004C434.079 207.638 432.439 207.965 430.782 207.966ZM427.14 205.173L430.109 205.373C432.57 205.54 435.006 204.789 436.938 203.266C433.466 203.28 430.025 202.615 426.811 201.308C427.065 202.58 427.176 203.876 427.143 205.173H427.14ZM419.023 217.299L418.576 216.29L417.949 215.685L416.802 215.464L415.705 215.71L414.684 216.58L412.998 214.628L414.264 213.551L414.822 213.273L416.497 212.898L417.028 212.89L418.82 213.234L419.476 213.574L420.562 214.621L420.846 215.027L421.394 216.267L419.023 217.299Z" fill="#040825"/>
<path d="M423.855 229.114L419.498 228.303L417.003 226.59L415.627 223.95L417.398 221.675L424.39 222.768L423.855 229.114Z" fill="white"/>
<path d="M423.617 230.377L419.261 229.566L418.763 229.36L416.268 227.647L415.854 227.181L414.479 224.541L414.604 223.165L416.375 220.889L417.6 220.405L424.592 221.498L425.681 222.875L425.145 229.222L423.617 230.377ZM420.009 227.09L422.685 227.589L423.001 223.851L417.955 223.063L417.158 224.091L418.005 225.719L420.009 227.09Z" fill="#040825"/>
<path d="M555.934 337.086C555.934 337.086 482.677 400.893 452.821 412.291C378.578 440.633 288.24 425.985 288.24 425.985C288.24 425.985 297.161 338.45 300.931 315.312C311.071 253.073 360.115 235.58 360.115 235.58C360.115 235.58 368.777 236.553 378.453 237.687C421.229 242.703 431.967 242.151 451.143 242.656C484.228 243.524 504.492 258.58 514.472 274.126C517.799 279.308 555.934 337.086 555.934 337.086Z" fill="#2D67F5"/>
<path d="M344.143 430.978C311.74 430.978 288.488 427.325 288.03 427.251L286.951 425.853C287.037 424.977 295.92 338.015 299.653 315.1C304.95 282.582 320.959 262.373 333.456 251.146C347.019 238.963 359.167 234.545 359.677 234.364L360.26 234.296C360.26 234.296 368.925 235.269 378.606 236.404C414.77 240.645 427.765 240.894 442.811 241.184C445.499 241.235 448.239 241.287 451.178 241.365C466.673 241.773 480.442 245.272 492.104 251.763C501.597 256.965 509.654 264.407 515.563 273.433C518.849 278.548 556.634 335.802 557.016 336.379L556.786 338.049C553.788 340.66 483.015 402.136 453.285 413.487C416.731 427.444 376.011 430.978 344.143 430.978ZM289.652 424.895C300.613 426.474 383.904 437.222 452.356 411.09C479.937 400.56 545.97 343.983 554.231 336.852C549.287 329.364 516.44 279.585 513.382 274.817C496.142 247.969 464.089 244.279 451.108 243.937C448.174 243.859 445.443 243.807 442.761 243.756C427.647 243.466 414.594 243.215 378.302 238.958C369.706 237.949 361.913 237.073 360.282 236.886C358.412 237.612 347.202 242.239 335.105 253.133C322.95 264.077 307.377 283.783 302.209 315.513C298.729 336.87 290.747 414.225 289.652 424.895Z" fill="#040825"/>
<path d="M603.147 300.581C577.223 277.771 528.712 288.352 528.712 288.352L526.494 290.777L460.998 365.709C449.298 379.094 435.007 390.008 418.974 397.803C402.942 405.598 385.494 410.114 367.669 411.083L318.977 413.731C318.977 413.731 250.005 437.701 227.274 446.388L224.943 447.331L227.206 455.586C233.918 480.08 248.547 501.71 268.844 517.151C289.141 532.592 313.984 540.991 339.557 541.058L424.416 541.277V541.303H466.868C490.911 541.303 514.406 534.164 534.33 520.805C554.254 507.445 569.697 488.475 578.674 466.334L618.205 368.832C618.205 368.832 634.823 328.448 603.147 300.581Z" fill="#6319CF"/>
<path d="M466.87 542.585H424.418L424.393 542.559L339.557 542.34C313.714 542.223 288.621 533.712 268.109 518.107C247.597 502.502 232.795 480.661 225.963 455.921L223.701 447.665L224.462 446.138L226.793 445.195C249.305 436.592 317.868 412.755 318.559 412.516L318.915 412.446L367.606 409.797C385.25 408.799 402.516 404.309 418.387 396.593C434.258 388.877 448.416 378.089 460.028 364.864L525.525 289.933L527.761 287.486L528.442 287.094C537.597 285.329 546.91 284.502 556.235 284.625C570.476 284.816 590.328 287.572 604.015 299.618C620.742 314.336 624.039 332.519 623.858 345.173C623.776 353.412 622.273 361.577 619.416 369.314L579.885 466.81C570.811 489.19 555.202 508.363 535.064 521.867C514.926 535.37 491.179 542.585 466.877 542.585H466.87ZM424.448 540.015H466.87C490.656 540.015 513.898 532.953 533.608 519.736C553.318 506.52 568.595 487.753 577.475 465.849L617.006 368.347C617.17 367.946 632.883 328.462 602.287 301.541C578.386 280.511 534.054 288.598 529.386 289.525L527.451 291.641L461.976 366.548C450.136 380.032 435.701 391.032 419.518 398.899C403.335 406.767 385.731 411.344 367.74 412.363L319.233 415.001C315.365 416.346 249.637 439.216 227.742 447.584L226.5 448.086L228.462 455.243C235.144 479.442 249.621 500.804 269.684 516.067C289.746 531.329 314.291 539.653 339.567 539.766L424.426 539.986L424.448 540.015Z" fill="#040825"/>
<path d="M606.08 468.933C639.75 462.904 642.95 446.329 642.475 443.201C639.478 423.455 605.494 427.494 594.14 431.263C554.092 444.565 509.912 478.944 509.912 478.944C538.67 480.243 584.629 472.774 606.08 468.933Z" fill="#040825"/>
<path d="M516.997 480.378C514.523 480.378 512.143 480.327 509.859 480.226L509.119 477.931C509.563 477.588 553.93 443.262 593.735 430.043C601.838 427.352 623.679 423.934 635.804 431.299C637.941 432.519 639.769 434.209 641.147 436.238C642.525 438.268 643.418 440.583 643.756 443.007C644.06 445.01 643.255 450.271 638.031 455.852C631.567 462.759 620.896 467.585 606.311 470.197C584.292 474.139 545.017 480.378 516.997 480.378ZM513.604 477.776C541.526 478.335 583.005 471.758 605.851 467.666L606.081 468.93L605.851 467.666C641.616 461.261 641.222 443.563 641.195 443.39C640.906 441.338 640.148 439.38 638.98 437.664C637.811 435.948 636.262 434.52 634.452 433.49C623.727 426.974 603.176 429.616 594.557 432.478C560.992 443.627 524.049 470.017 513.604 477.776Z" fill="#040825"/>
<path d="M594.542 442.36C555.055 455.995 509.923 478.94 509.918 478.945L510.124 512.992L552.12 543.804L598.527 498.664L613.787 437.541C607.239 438.568 600.797 440.181 594.542 442.36Z" fill="#F6A4BB"/>
<path d="M551.35 544.834L509.355 514.023L508.829 512.995L508.623 478.949L509.298 477.813C509.674 477.609 554.906 454.679 594.116 441.142C600.445 438.935 606.963 437.304 613.589 436.267L615.044 437.846L599.784 498.97L599.433 499.579L553.026 544.714L551.35 544.834ZM511.415 512.338L552.002 542.117L597.359 498.003L612.057 439.127C606.249 440.15 600.534 441.638 594.968 443.575C558.503 456.165 517.108 476.767 511.218 479.731L511.415 512.338Z" fill="#040825"/>
<path d="M594.542 442.36C555.055 455.995 509.923 478.94 509.918 478.945V478.986L509.949 484.659C509.949 484.659 575.251 458.063 610.077 452.278L613.745 437.55C607.211 438.577 600.784 440.187 594.542 442.36Z" fill="#040825"/>
<path d="M510.447 485.845L508.66 484.664L508.629 478.991H508.686L509.3 477.815C509.677 477.611 554.908 454.682 594.118 441.144C600.435 438.942 606.94 437.313 613.553 436.275L615.007 437.854L611.34 452.581L610.296 453.54C576.011 459.237 511.096 485.58 510.447 485.845ZM511.223 479.726L511.24 482.753C521.868 478.504 577.513 456.609 609.031 451.15L612.024 439.134C606.228 440.157 600.526 441.642 594.971 443.574C558.509 456.162 517.122 476.759 511.223 479.729V479.726Z" fill="#040825"/>
<path d="M518.034 347.854C508.108 391.926 509.921 478.942 509.921 478.942C509.921 478.942 555.055 455.994 594.544 442.357C620.572 433.37 642.479 435.788 642.479 443.196L632.761 322.295C629.037 287.441 606.204 268.923 574.484 268.923C565.37 268.913 556.363 270.86 548.079 274.631C539.795 278.403 532.432 283.909 526.494 290.771" fill="#6319CF"/>
<path d="M510.509 480.086L508.625 478.973C508.619 478.755 508.179 456.874 508.959 429.892C509.679 404.959 511.62 370.442 516.772 347.577L519.299 348.138C510.359 387.813 510.99 463.473 511.179 476.873C520.089 472.432 559.489 453.107 594.116 441.151C613.253 434.542 633.185 433.384 640.791 438.392L631.47 322.404C629.713 305.969 623.414 292.507 613.258 283.506C603.449 274.812 590.04 270.217 574.483 270.217C565.558 270.216 556.737 272.127 548.625 275.821C540.512 279.515 533.299 284.905 527.478 291.621L525.516 289.944C531.58 282.947 539.094 277.333 547.545 273.484C555.996 269.636 565.185 267.645 574.483 267.647C608.133 267.647 630.4 288.028 634.047 322.168L643.713 442.474C643.749 442.714 643.767 442.956 643.767 443.199L641.178 443.301L641.137 442.787C640.91 441.901 640.34 441.139 639.551 440.668C633.709 436.546 615.433 436.506 594.959 443.575C556.02 457.024 510.959 479.858 510.509 480.086Z" fill="#040825"/>
<path d="M675.12 563.351H510.125V512.989L553.851 520.503C567.794 511.151 582.864 503.572 598.708 497.944L663.329 541.315C666.96 543.751 669.934 547.033 671.989 550.875C674.045 554.717 675.12 559.001 675.12 563.351Z" fill="#61E7EF"/>
<path d="M675.119 564.636H510.125L508.83 563.351V512.989L510.346 511.723L553.553 519.148C567.487 509.881 582.515 502.35 598.299 496.724L599.432 496.879L664.054 540.25C667.863 542.801 670.982 546.242 673.137 550.27C675.292 554.298 676.417 558.79 676.414 563.351L675.119 564.636ZM511.419 562.066H673.792C673.594 558.148 672.48 554.329 670.538 550.912C668.596 547.495 665.88 544.573 662.604 542.379L598.518 499.368C583.019 504.964 568.266 512.416 554.585 521.559L553.631 521.766L511.425 514.513L511.419 562.066Z" fill="#040825"/>
<path d="M663.035 582.986C666.239 582.986 669.313 581.722 671.579 579.473C673.845 577.223 675.118 574.172 675.118 570.991V563.351H510.129V570.994C510.129 574.175 511.402 577.226 513.668 579.475C515.934 581.725 519.008 582.989 522.213 582.989L663.035 582.986Z" fill="white"/>
<path d="M663.034 584.271H522.212C518.665 584.267 515.265 582.867 512.757 580.377C510.249 577.888 508.838 574.512 508.834 570.991V563.351L510.129 562.066H675.118L676.413 563.351V570.994C676.408 574.514 674.997 577.889 672.489 580.378C669.981 582.867 666.581 584.267 663.034 584.271ZM511.423 564.636V570.994C511.427 573.833 512.564 576.555 514.587 578.563C516.61 580.571 519.352 581.7 522.212 581.703H663.034C665.895 581.7 668.637 580.571 670.66 578.563C672.682 576.555 673.82 573.833 673.823 570.994V564.636H511.423Z" fill="#040825"/>
<path d="M623.893 514.857C615.797 518.498 604.43 523.293 594.142 530.31C593.441 530.788 592.653 531.125 591.821 531.3C590.99 531.476 590.132 531.487 589.296 531.334C588.46 531.18 587.663 530.865 586.949 530.405C586.236 529.946 585.621 529.352 585.14 528.656C584.658 527.961 584.319 527.178 584.142 526.353C583.965 525.527 583.953 524.676 584.108 523.846C584.263 523.016 584.581 522.224 585.043 521.517C585.506 520.809 586.105 520.198 586.805 519.72C595.057 514.091 605.651 509.478 612.33 507.096L623.893 514.857Z" fill="white"/>
<path d="M590.481 532.73C588.822 532.732 587.206 532.207 585.87 531.232C584.534 530.256 583.547 528.882 583.054 527.31C582.561 525.738 582.588 524.05 583.131 522.495C583.674 520.939 584.704 519.597 586.071 518.664C594.146 513.155 604.703 508.453 611.89 505.89L613.053 506.035L624.619 513.796L624.428 516.031C623.605 516.401 622.751 516.783 621.864 517.177C613.916 520.722 604.025 525.133 594.876 531.373C593.583 532.257 592.051 532.73 590.481 532.73ZM612.149 508.532C605.138 511.083 595.183 515.567 587.537 520.784C586.966 521.162 586.477 521.649 586.098 522.216C585.718 522.784 585.457 523.42 585.327 524.089C585.198 524.758 585.204 525.446 585.344 526.112C585.485 526.779 585.757 527.411 586.146 527.972C586.535 528.533 587.032 529.012 587.609 529.381C588.186 529.749 588.831 530.001 589.506 530.12C590.181 530.239 590.874 530.224 591.544 530.075C592.213 529.927 592.846 529.647 593.406 529.254C602.745 522.884 612.755 518.421 620.798 514.834L621.241 514.636L612.149 508.532Z" fill="#040825"/>
<path d="M648.929 531.663C642.162 535.004 633.293 538.461 625.732 543.619C625.031 544.097 624.243 544.434 623.411 544.61C622.58 544.785 621.722 544.797 620.886 544.643C620.05 544.49 619.252 544.174 618.539 543.715C617.826 543.255 617.211 542.661 616.729 541.966C616.248 541.27 615.909 540.488 615.732 539.662C615.555 538.837 615.543 537.985 615.698 537.155C615.853 536.325 616.17 535.534 616.633 534.826C617.096 534.118 617.695 533.508 618.395 533.029C624.213 529.062 632.572 525.25 636.707 523.463L638.048 524.362L648.929 531.663Z" fill="white"/>
<path d="M622.073 546.036C620.414 546.038 618.798 545.513 617.462 544.537C616.125 543.562 615.139 542.188 614.646 540.616C614.153 539.044 614.18 537.356 614.723 535.801C615.266 534.245 616.296 532.902 617.663 531.97C623.514 527.981 631.783 524.189 636.191 522.288L637.432 522.401L649.654 530.601L649.506 532.816C647.662 533.727 645.688 534.634 643.598 535.596C638.112 538.118 631.894 540.977 626.465 544.678C625.173 545.561 623.642 546.035 622.073 546.036ZM636.573 524.924C632.125 526.868 624.527 530.408 619.128 534.092C618.557 534.47 618.068 534.957 617.689 535.525C617.309 536.092 617.047 536.729 616.918 537.397C616.789 538.066 616.794 538.754 616.935 539.42C617.076 540.087 617.348 540.719 617.737 541.28C618.126 541.841 618.623 542.32 619.2 542.689C619.777 543.058 620.421 543.309 621.097 543.428C621.772 543.547 622.465 543.532 623.134 543.384C623.804 543.235 624.437 542.956 624.997 542.562C630.607 538.737 636.927 535.83 642.506 533.264C643.834 532.653 645.116 532.065 646.342 531.484L636.573 524.924Z" fill="#040825"/>
<path d="M411.839 495.133C424.495 499.478 445.39 506.334 445.39 506.334C445.39 506.334 470.06 518.197 470.06 546.634C470.06 573.033 457.109 582.986 457.109 582.986H324.666C324.61 583.087 313.959 566.193 334.333 539.059C357.928 507.638 411.839 495.133 411.839 495.133Z" fill="#F6A4BB"/>
<path d="M457.106 584.271H324.666C323.775 584.251 323.444 583.576 322.986 582.643C322.077 580.793 320.032 575.642 320.655 567.805C321.404 558.394 325.661 548.464 333.296 538.291C356.899 506.856 411 494.007 411.544 493.881L412.261 493.918C424.765 498.211 445.587 505.045 445.796 505.114L445.954 505.177C446.213 505.3 471.355 517.726 471.355 546.634C471.355 573.357 458.449 583.581 457.9 584.002L457.106 584.271ZM411.775 496.471C407.058 497.635 357.411 510.476 335.371 539.825C317.591 563.51 323.904 578.793 325.408 581.701H456.629C458.562 579.967 468.765 569.71 468.765 546.634C468.765 520.1 446.317 508.25 444.893 507.525C443.395 507.033 423.903 500.629 411.775 496.471Z" fill="#040825"/>
<path d="M417.65 497.115C412.825 518.757 367.986 550.064 367.986 550.064C367.598 550.373 367.218 550.689 366.847 551.006C362.509 554.801 359.014 559.45 356.586 564.658C354.158 569.867 352.849 575.52 352.743 581.259L352.7 582.981H324.666C324.614 583.084 313.955 566.197 334.333 539.062C357.931 507.635 411.841 495.135 411.841 495.135C413.636 495.751 415.604 496.421 417.65 497.115Z" fill="#040825"/>
<path d="M324.663 584.268C323.808 584.268 323.48 583.617 323.064 582.796C321.505 579.716 314.671 563.09 333.295 538.295C345.655 521.834 366.288 510.633 381.422 504.135C391.172 499.928 401.245 496.501 411.544 493.885L412.262 493.922C414.056 494.538 416.022 495.207 418.066 495.899L418.912 497.393C414.034 519.27 370.577 549.828 368.729 551.114C368.416 551.365 368.048 551.671 367.693 551.978C363.493 555.656 360.11 560.162 357.759 565.208C355.408 570.255 354.142 575.732 354.039 581.29L353.996 583.012L352.701 584.265H324.663V584.268ZM325.407 581.697H351.437L351.449 581.228C351.561 575.311 352.913 569.482 355.418 564.112C357.923 558.741 361.526 553.948 365.999 550.035C366.384 549.706 366.776 549.379 367.177 549.061C367.676 548.709 410.189 518.824 416.103 497.948C414.595 497.434 413.139 496.942 411.777 496.474C407.06 497.637 357.413 510.476 335.371 539.827C317.599 563.495 323.902 578.781 325.407 581.697ZM553.847 520.502L553.852 520.509C560.42 524.88 565.803 530.789 569.526 537.714C573.249 544.639 575.197 552.367 575.198 560.217C575.197 566.256 572.781 572.047 568.479 576.317C564.178 580.587 558.344 582.986 552.261 582.987L577.611 583.005C581.955 578.363 584.415 572.29 584.516 565.955C584.511 536.834 553.847 520.502 553.847 520.502Z" fill="#040825"/>
<path d="M577.609 584.291L552.26 584.273V581.703C557.998 581.695 563.498 579.429 567.555 575.402C571.612 571.374 573.895 565.914 573.902 560.218C573.909 552.578 572.017 545.054 568.394 538.313C564.771 531.573 559.528 525.824 553.13 521.577L552.769 521.17L552.747 521.183L552.765 521.165L552.692 521.079L552.972 520.94L554.458 519.365C554.771 519.532 585.805 536.403 585.805 565.948C585.723 572.633 583.122 579.045 578.514 583.921L577.609 584.291ZM563.136 581.71L577.05 581.721C580.917 577.354 583.101 571.769 583.216 565.956C583.216 552.162 576.008 541.238 568.658 533.687C573.78 541.602 576.499 550.813 576.492 560.22C576.488 564.679 575.237 569.048 572.879 572.842C570.521 576.637 567.148 579.707 563.136 581.71Z" fill="#040825"/>
<path d="M558.71 560.215V560.326C558.716 563.299 558.131 566.243 556.99 568.992C555.848 571.74 554.172 574.237 552.058 576.342C549.943 578.447 547.431 580.117 544.666 581.258C541.9 582.398 538.936 582.986 535.941 582.988H457.113C468.799 531.496 444.588 506.143 444.588 506.143L463.267 497.516L540.585 531.796C545.997 534.356 550.569 538.382 553.776 543.411C556.983 548.439 558.693 554.264 558.71 560.215Z" fill="#61E7EF"/>
<path d="M535.942 584.273H457.113L455.849 582.706C467.231 532.56 443.885 507.276 443.648 507.027L444.043 504.978L462.717 496.35L463.791 496.342L541.109 530.622C546.748 533.285 551.514 537.477 554.857 542.713C558.199 547.949 559.983 554.016 560.002 560.215V560.326C560.008 563.468 559.39 566.579 558.183 569.483C556.976 572.387 555.205 575.027 552.97 577.251C550.735 579.475 548.081 581.24 545.158 582.445C542.236 583.65 539.103 584.271 535.938 584.273H535.942ZM458.722 581.703H535.942C538.766 581.701 541.563 581.147 544.171 580.072C546.779 578.996 549.149 577.421 551.143 575.436C553.138 573.45 554.718 571.094 555.795 568.502C556.871 565.91 557.422 563.133 557.416 560.329V560.215C557.4 554.507 555.759 548.92 552.683 544.098C549.608 539.275 545.222 535.413 540.031 532.957L463.277 498.928L446.658 506.605C451.301 512.492 468.195 537.647 458.722 581.703Z" fill="#040825"/>
<path d="M535.938 582.988H552.261C558.344 582.988 564.179 580.589 568.481 576.319C572.782 572.048 575.199 566.257 575.199 560.218C575.2 551.162 572.609 542.292 567.729 534.641C562.85 526.99 555.881 520.872 547.635 516.999L490.205 491.745C487.964 490.692 485.517 490.143 483.038 490.135C480.559 490.127 478.109 490.661 475.861 491.698L463.266 497.513L540.584 531.793C545.996 534.353 550.569 538.38 553.776 543.408C556.983 548.437 558.693 554.262 558.709 560.214V560.325C558.715 563.298 558.13 566.243 556.989 568.991C555.847 571.739 554.171 574.237 552.056 576.342C549.941 578.447 547.429 580.117 544.663 581.258C541.897 582.398 538.932 582.986 535.938 582.988Z" fill="white"/>
<path d="M552.259 584.273H535.936V581.702C538.761 581.701 541.558 581.147 544.166 580.071C546.775 578.996 549.145 577.421 551.14 575.436C553.135 573.451 554.716 571.095 555.793 568.503C556.87 565.911 557.422 563.134 557.417 560.33V560.217C557.401 554.508 555.76 548.921 552.684 544.098C549.607 539.275 545.221 535.413 540.029 532.958L462.737 498.687L462.719 496.348L475.313 490.533C477.733 489.412 480.371 488.835 483.041 488.844C485.711 488.852 488.346 489.446 490.758 490.582L548.155 515.824C556.614 519.819 563.762 526.106 568.775 533.96C573.789 541.814 576.463 550.915 576.491 560.213C576.484 566.591 573.93 572.706 569.387 577.217C564.844 581.727 558.685 584.265 552.259 584.273ZM546.822 581.702H552.259C557.998 581.697 563.5 579.431 567.558 575.403C571.615 571.376 573.898 565.914 573.903 560.218C573.879 551.411 571.348 542.791 566.602 535.35C561.856 527.91 555.088 521.952 547.079 518.164L489.682 492.923C487.61 491.943 485.346 491.43 483.051 491.42C480.756 491.41 478.487 491.904 476.407 492.867L466.388 497.493L541.111 530.622C546.751 533.284 551.517 537.475 554.861 542.711C558.204 547.948 559.988 554.016 560.006 560.215V560.323C560.009 564.747 558.778 569.085 556.451 572.858C554.124 576.631 550.791 579.691 546.82 581.701L546.822 581.702Z" fill="#040825"/>
<path d="M485.518 582.989H472.166C475.139 571.614 475.964 559.791 474.6 548.118C474.395 546.425 474.876 544.72 475.937 543.38C476.998 542.039 478.552 541.171 480.258 540.968C481.963 540.764 483.68 541.242 485.031 542.295C486.382 543.348 487.256 544.891 487.46 546.584C488.899 558.74 488.242 571.051 485.518 582.989Z" fill="white"/>
<path d="M485.518 584.273H472.165L470.912 582.665C473.839 571.445 474.653 559.784 473.313 548.27C473.191 547.264 473.27 546.244 473.546 545.269C473.821 544.293 474.287 543.381 474.917 542.584C475.547 541.787 476.33 541.122 477.219 540.625C478.109 540.128 479.088 539.81 480.101 539.689C481.115 539.569 482.142 539.647 483.125 539.92C484.107 540.193 485.026 540.656 485.829 541.281C486.632 541.907 487.302 542.684 487.803 543.567C488.303 544.45 488.623 545.422 488.745 546.428C490.216 558.729 489.552 571.19 486.781 583.269L485.518 584.273ZM473.823 581.703H484.478C486.997 570.222 487.571 558.404 486.174 546.735C486.01 545.381 485.31 544.147 484.229 543.304C483.148 542.462 481.774 542.08 480.41 542.243C479.045 542.406 477.802 543.101 476.953 544.174C476.105 545.247 475.72 546.61 475.885 547.965C477.2 559.244 476.502 570.665 473.823 581.703Z" fill="#040825"/>
<path d="M515.205 582.988H501.768C503.607 577.784 504.947 564.902 504.421 556.308C504.317 554.606 504.898 552.933 506.037 551.656C507.175 550.38 508.778 549.604 510.493 549.501C512.207 549.398 513.893 549.975 515.179 551.105C516.465 552.235 517.246 553.827 517.35 555.529C517.903 564.525 517.148 576.396 515.205 582.988Z" fill="white"/>
<path d="M515.203 584.274H501.766L500.545 582.56C502.378 577.373 503.633 564.653 503.127 556.384C503.002 554.343 503.699 552.336 505.065 550.805C506.43 549.274 508.352 548.345 510.409 548.22C512.463 548.105 514.48 548.8 516.022 550.152C517.563 551.505 518.504 553.408 518.641 555.446C519.159 563.861 518.569 576.145 516.445 583.347L515.203 584.274ZM503.508 581.703H514.215C515.817 575.485 516.605 564.542 516.056 555.607C515.964 554.247 515.335 552.978 514.307 552.076C513.278 551.174 511.932 550.711 510.561 550.788C509.192 550.872 507.911 551.493 507.002 552.513C506.092 553.533 505.628 554.87 505.712 556.23C506.185 563.97 505.141 575.556 503.508 581.703Z" fill="#040825"/>
<path d="M315.912 472.23C330.266 469.447 356.076 476.296 377.768 483.539C399.313 490.736 408.875 494.07 411.84 495.131C411.84 495.131 399.722 515.813 359.738 539.794C324.229 561.09 333.685 582.986 333.685 582.986V582.98L253.647 582.992L253.64 582.966C234.828 582.754 216.858 575.187 203.63 561.907C190.402 548.627 182.982 530.706 182.98 512.03C182.98 482.398 201.043 456.41 227.273 446.386C233.214 466.357 273.004 478.383 315.912 472.23Z" fill="#6319CF"/>
<path d="M253.647 584.28L253.613 584.253C234.462 584.034 216.169 576.329 202.704 562.808C189.239 549.288 181.686 531.042 181.686 512.03C181.686 482.364 199.819 455.501 226.808 445.187L227.738 447.586C201.742 457.522 184.275 483.42 184.275 512.03C184.274 530.369 191.558 547.968 204.547 561.009C217.536 574.049 235.182 581.479 253.655 581.686L253.688 581.713L331.905 581.702C330.379 575.876 328.441 557.068 359.068 538.7C379.537 526.423 392.493 515.053 399.757 507.679C403.457 504.011 406.838 500.037 409.861 495.801C406.341 494.563 397.055 491.345 377.355 484.764C348.688 475.186 327.527 471.291 316.16 473.494L315.664 470.972C327.641 468.647 348.675 472.47 378.181 482.327C402.262 490.37 410.807 493.402 412.28 493.928L412.96 495.783C412.457 496.639 400.218 517.023 360.407 540.899C326.388 561.303 334.514 581.634 334.877 582.49L334.599 582.607L334.98 582.986L333.686 583.253V584.271L253.647 584.28Z" fill="#040825"/>
<path d="M221.931 448.714C216.048 451.581 210.617 455.282 205.807 459.702C209.238 469.533 220.153 483.539 252.91 475.809C275.005 470.597 312.132 448.492 312.206 448.135C312.206 448.135 280.156 458.641 269.206 461.158C251.548 465.213 234.732 465.603 221.931 448.714Z" fill="#040825"/>
<path d="M235.478 479.35C214.867 479.35 207.33 467.988 204.584 460.122L204.929 458.757C209.831 454.253 215.367 450.481 221.362 447.559L222.967 447.94C235.741 464.796 252.599 463.651 268.913 459.904C279.68 457.431 311.479 447.02 311.799 446.915L313.475 448.382C313.344 449.046 313.32 449.165 306.666 452.989C301.645 455.868 296.56 458.636 291.415 461.291C280.422 466.963 264.871 474.309 253.21 477.06C247.409 478.504 241.458 479.273 235.478 479.35ZM207.321 460.071C210.768 469.05 221.191 481.974 252.613 474.559C267.596 471.024 289.157 459.861 301.573 452.916C291.222 456.215 276.37 460.83 269.497 462.408C258.685 464.893 250.669 465.399 243.508 464.052C234.752 462.405 227.561 457.915 221.557 450.335C216.404 452.95 211.618 456.223 207.321 460.071ZM433.418 398.169L399.648 395.907C398.973 395.865 398.318 395.665 397.736 395.325C397.153 394.984 396.66 394.513 396.294 393.949C395.929 393.385 395.702 392.743 395.632 392.076C395.562 391.408 395.651 390.734 395.892 390.107L423.742 317.554C424.267 316.186 425.22 315.02 426.46 314.229C427.701 313.437 429.164 313.06 430.636 313.154L464.407 315.417C465.081 315.46 465.736 315.66 466.319 316C466.901 316.34 467.395 316.811 467.76 317.376C468.126 317.94 468.353 318.582 468.423 319.249C468.493 319.916 468.404 320.59 468.163 321.217L440.313 393.77C439.788 395.138 438.835 396.303 437.594 397.095C436.354 397.887 434.89 398.263 433.418 398.169Z" fill="#040825"/>
<path d="M433.872 399.469C433.694 399.469 433.515 399.463 433.335 399.452L399.564 397.189C398.688 397.132 397.837 396.872 397.081 396.43C396.324 395.987 395.683 395.375 395.208 394.641C394.734 393.908 394.439 393.074 394.348 392.207C394.258 391.34 394.373 390.464 394.686 389.649L422.535 317.096C423.155 315.468 424.285 314.082 425.76 313.141C427.234 312.2 428.974 311.754 430.723 311.869L464.497 314.132C465.374 314.189 466.224 314.449 466.981 314.891C467.738 315.334 468.379 315.947 468.853 316.68C469.328 317.413 469.622 318.247 469.713 319.114C469.804 319.981 469.688 320.857 469.376 321.672L441.526 394.224C440.941 395.769 439.894 397.098 438.526 398.036C437.158 398.973 435.534 399.473 433.872 399.469ZM433.505 396.886C434.7 396.965 435.89 396.66 436.898 396.016C437.906 395.373 438.679 394.425 439.103 393.312L466.952 320.759C467.12 320.32 467.183 319.848 467.133 319.381C467.084 318.914 466.926 318.465 466.67 318.07C466.414 317.675 466.068 317.345 465.66 317.107C465.253 316.869 464.794 316.729 464.322 316.699L430.548 314.436C429.352 314.356 428.162 314.66 427.153 315.304C426.145 315.948 425.372 316.897 424.95 318.011L397.101 390.564C396.932 391.003 396.87 391.475 396.919 391.942C396.968 392.409 397.127 392.859 397.383 393.254C397.639 393.649 397.984 393.979 398.392 394.217C398.8 394.455 399.259 394.594 399.731 394.624L433.505 396.886Z" fill="#040825"/>
<path d="M439.448 398.554L405.678 396.291C405.003 396.248 404.348 396.048 403.766 395.708C403.183 395.368 402.69 394.897 402.324 394.332C401.959 393.768 401.732 393.126 401.662 392.459C401.592 391.792 401.681 391.117 401.921 390.49L429.772 317.938C430.297 316.57 431.25 315.405 432.49 314.613C433.731 313.821 435.194 313.445 436.666 313.538L470.437 315.8C471.111 315.843 471.766 316.043 472.349 316.383C472.931 316.723 473.425 317.195 473.79 317.759C474.156 318.323 474.383 318.965 474.453 319.632C474.523 320.3 474.434 320.974 474.193 321.601L446.343 394.154C445.818 395.522 444.865 396.687 443.624 397.479C442.383 398.271 440.92 398.647 439.448 398.554Z" fill="#61E7EF"/>
<path d="M439.903 399.854C439.726 399.854 439.546 399.848 439.366 399.837L405.596 397.575C404.72 397.518 403.869 397.258 403.112 396.816C402.356 396.373 401.714 395.761 401.24 395.027C400.765 394.294 400.47 393.46 400.38 392.593C400.289 391.726 400.404 390.85 400.717 390.035L428.566 317.483C429.185 315.854 430.315 314.467 431.789 313.525C433.264 312.584 435.005 312.139 436.754 312.256L470.529 314.519C471.405 314.576 472.256 314.836 473.012 315.278C473.769 315.721 474.41 316.333 474.885 317.067C475.359 317.8 475.654 318.634 475.744 319.501C475.835 320.368 475.72 321.244 475.407 322.059L447.558 394.612C446.972 396.156 445.925 397.485 444.557 398.422C443.189 399.358 441.565 399.858 439.903 399.854ZM439.531 397.271C440.729 397.353 441.92 397.049 442.93 396.405C443.939 395.761 444.712 394.811 445.134 393.696L472.983 321.144C473.152 320.705 473.214 320.233 473.165 319.766C473.116 319.298 472.957 318.849 472.701 318.454C472.446 318.059 472.1 317.729 471.692 317.491C471.284 317.253 470.826 317.113 470.353 317.083L436.58 314.821C435.383 314.739 434.192 315.043 433.184 315.687C432.175 316.332 431.403 317.281 430.981 318.396L403.132 390.948C402.964 391.387 402.901 391.859 402.95 392.326C402.999 392.794 403.158 393.243 403.414 393.638C403.67 394.033 404.016 394.363 404.423 394.601C404.831 394.839 405.29 394.979 405.762 395.009L439.531 397.271Z" fill="#040825"/>
<path d="M453.637 335.745C454.525 333.447 453.518 330.927 451.389 330.116C449.26 329.306 446.814 330.512 445.926 332.81C445.038 335.108 446.044 337.629 448.174 338.439C450.303 339.25 452.749 338.043 453.637 335.745Z" fill="#040825"/>
<path d="M449.539 339.975C448.914 339.975 448.294 339.861 447.71 339.639C447.028 339.377 446.409 338.977 445.893 338.463C445.377 337.949 444.975 337.333 444.714 336.656C444.168 335.271 444.168 333.734 444.714 332.349C445.204 330.957 446.23 329.814 447.567 329.17C448.904 328.527 450.444 328.435 451.849 328.915C452.531 329.177 453.15 329.578 453.666 330.092C454.181 330.606 454.583 331.221 454.844 331.899C455.39 333.283 455.39 334.821 454.844 336.205C454.445 337.29 453.725 338.231 452.778 338.903C451.832 339.576 450.703 339.949 449.539 339.975ZM450.014 331.15C449.375 331.177 448.759 331.393 448.246 331.771C447.732 332.149 447.345 332.671 447.134 333.271C446.821 334.053 446.817 334.924 447.121 335.71C447.252 336.056 447.454 336.371 447.715 336.634C447.977 336.898 448.29 337.104 448.637 337.24C449.4 337.476 450.227 337.403 450.937 337.037C451.647 336.671 452.183 336.042 452.427 335.286C452.74 334.503 452.744 333.632 452.439 332.846C452.309 332.5 452.106 332.185 451.846 331.922C451.585 331.658 451.271 331.452 450.925 331.316C450.634 331.206 450.325 331.149 450.014 331.149V331.15Z" fill="#040825"/>
<path d="M222.016 348.191C217.522 370.255 203.842 381.839 203.842 407.448C203.804 415.854 205.676 424.16 209.318 431.749C212.961 439.337 218.28 446.013 224.88 451.279C231.48 456.545 239.191 460.267 247.44 462.166C255.689 464.066 264.263 464.095 272.525 462.251C301.045 455.853 394.16 425.812 394.16 425.812C426.584 420.052 444.586 415.18 451.978 413.365C456.113 412.35 458.944 409.473 458.544 404.63C458.469 403.597 458.18 402.59 457.695 401.673C457.209 400.755 456.538 399.947 455.723 399.3C454.908 398.652 453.968 398.179 452.96 397.909C451.952 397.64 450.899 397.58 449.866 397.733L437.243 399.158C437.243 399.158 441.46 388.9 442.71 381.601C443.961 374.302 442.359 364.803 442.359 364.803L459.972 364.433C461.995 364.146 463.832 363.105 465.108 361.521C466.384 359.937 467.004 357.93 466.841 355.908C466.481 351.446 463.366 348.882 458.861 348.682C449.16 348.253 421.196 347.107 421.196 347.107C421.196 347.107 425.349 337.273 426.641 333.959C431.797 320.731 420.148 318.672 420.148 318.672L416.869 319.741L405.077 333.682C389.961 337.866 384.109 345.287 384.109 345.287C384.109 345.287 384.08 345.326 384.031 345.402C373.273 345.768 328.082 346.999 308.412 349.053" fill="#F5B7A6"/>
<path d="M260.214 464.899C249.866 464.898 239.708 462.135 230.805 456.899C221.903 451.664 214.582 444.147 209.611 435.138C204.974 426.634 202.547 417.117 202.547 407.448C202.547 392.065 207.479 381.465 212.247 371.214C215.534 364.149 218.932 356.843 220.747 347.936L223.284 348.446C221.41 357.648 217.947 365.092 214.598 372.292C209.732 382.751 205.136 392.631 205.136 407.448C205.136 416.689 207.456 425.784 211.887 433.912C217.628 444.311 226.619 452.577 237.504 457.462C248.39 462.347 260.581 463.588 272.238 460.996C300.376 454.683 392.829 424.888 393.759 424.587L393.932 424.544C422.317 419.503 439.31 415.223 448.439 412.924C449.681 412.61 450.755 412.34 451.667 412.116C453.935 411.559 457.677 409.86 457.254 404.733C457.197 403.897 456.971 403.082 456.588 402.336C456.205 401.589 455.674 400.928 455.026 400.391C454.328 399.837 453.523 399.429 452.662 399.191C451.8 398.953 450.899 398.891 450.012 399.008L437.39 400.434H437.376L437.29 400.442C436.949 400.479 436.608 400.381 436.34 400.169C436.071 399.958 435.897 399.65 435.855 399.313C435.824 399.128 435.838 398.938 435.897 398.759C435.957 398.581 436.059 398.419 436.196 398.289C436.96 396.373 440.352 387.675 441.43 381.384C442.629 374.39 441.094 365.105 441.078 365.013L442.328 363.516L459.86 363.148C461.539 362.888 463.058 362.008 464.112 360.684C465.167 359.36 465.679 357.69 465.547 356.008C465.252 352.344 462.793 350.14 458.8 349.963C449.212 349.535 421.42 348.4 421.139 348.388L419.999 346.608C420.041 346.51 424.159 336.755 425.43 333.493C426.969 329.545 427.065 326.327 425.717 323.931C424.464 321.96 422.488 320.551 420.207 320.002L417.618 320.846L406.065 334.508L405.421 334.92C390.964 338.921 385.179 346.011 385.122 346.082L385.108 346.109L384.072 346.686C382.794 346.73 381.033 346.785 378.885 346.853C363.01 347.353 325.834 348.525 308.541 350.331L308.27 347.775C325.654 345.959 362.898 344.785 378.801 344.283C380.632 344.226 382.183 344.177 383.392 344.137C384.863 342.482 391.054 336.314 404.336 332.552L415.874 318.911L416.462 318.516L419.742 317.446L420.374 317.402C420.583 317.439 425.532 318.358 427.964 322.646C429.722 325.748 429.682 329.708 427.847 334.418C426.877 336.903 424.356 342.923 423.107 345.894C429.524 346.157 450.776 347.03 458.918 347.393C464.201 347.628 467.731 350.85 468.129 355.801C468.314 358.148 467.593 360.477 466.112 362.315C464.631 364.153 462.501 365.364 460.154 365.7L459.998 365.713L443.851 366.056C444.251 369.049 444.973 376.031 443.985 381.816C443.047 387.291 440.533 394.26 439.231 397.639L449.718 396.456C450.949 396.297 452.2 396.389 453.395 396.724C454.589 397.059 455.703 397.631 456.669 398.406C457.585 399.16 458.338 400.092 458.882 401.143C459.425 402.195 459.749 403.345 459.833 404.524C460.25 409.579 457.429 413.349 452.287 414.612C451.379 414.835 450.31 415.104 449.073 415.415C440.575 417.557 422.898 422.008 394.474 427.06C391.187 428.12 300.686 457.249 272.809 463.503C268.676 464.431 264.451 464.899 260.214 464.899Z" fill="#040825"/>
<path d="M440.229 364.853C440.229 364.853 450.107 364.656 456.23 364.672C460.739 364.683 464.183 367.49 464.541 371.954C464.704 373.976 464.085 375.984 462.809 377.568C461.533 379.152 459.696 380.193 457.673 380.479L437.965 381.9" fill="#F5B7A6"/>
<path d="M438.058 383.179L437.871 380.615L457.533 379.198C459.219 378.945 460.746 378.068 461.807 376.742C462.868 375.417 463.384 373.742 463.251 372.054C462.954 368.36 460.197 365.966 456.227 365.956C450.185 365.943 440.353 366.135 440.259 366.137L440.208 363.567C440.306 363.567 450.172 363.374 456.237 363.385C461.573 363.398 465.43 366.8 465.836 371.849C466.021 374.195 465.3 376.524 463.819 378.362C462.338 380.201 460.208 381.411 457.861 381.748L457.775 381.757L438.058 383.179Z" fill="#040825"/>
<path d="M437.964 381.897L453.119 380.942C455.264 380.752 457.397 381.412 459.052 382.779C460.707 384.146 461.749 386.108 461.951 388.236C462.115 390.257 461.495 392.265 460.219 393.849C458.943 395.433 457.106 396.474 455.083 396.761L435.189 399.385" fill="#F5B7A6"/>
<path d="M435.356 400.663L435.011 398.114L454.905 395.49C456.598 395.245 458.134 394.369 459.201 393.042C460.268 391.715 460.788 390.034 460.654 388.341C460.479 386.549 459.596 384.899 458.197 383.753C456.799 382.607 454.999 382.059 453.194 382.228L438.038 383.18L437.875 380.615L453.03 379.662C455.484 379.368 457.956 380.055 459.901 381.57C461.845 383.086 463.104 385.306 463.4 387.743C463.695 390.179 463.004 392.633 461.477 394.563C459.95 396.494 457.714 397.743 455.259 398.037L435.356 400.663ZM221.415 350.869C217.084 348.433 212.429 346.616 207.586 345.471C201.027 344.005 194.229 344.725 191.982 348.229C190.946 349.851 190.877 352.07 192.264 354.945C194.979 360.579 208.404 367.807 215.118 368.083" fill="#040825"/>
<path d="M215.063 369.37C206.719 369.027 193.658 360.812 191.095 355.503C189.211 351.595 189.943 349.016 190.889 347.541C193.645 343.242 201.403 342.775 207.869 344.219C212.847 345.387 217.632 347.254 222.079 349.763L220.751 351.97C216.535 349.611 212.009 347.846 207.302 346.727C200.804 345.277 194.82 346.199 193.075 348.921C192.211 350.269 192.331 352.109 193.431 354.393C195.926 359.578 209.061 366.548 215.174 366.805L215.063 369.37Z" fill="#040825"/>
<path d="M321.047 318.09C317.753 335.239 309.275 333.969 308.412 349.053C296.278 350.244 295.5 357.168 282.896 356.721C270.291 356.273 270.6 347.711 257.996 347.263C245.392 346.816 245.08 355.524 232.483 354.931C222.976 354.484 222.856 348.933 207.587 345.474C201.027 344.008 194.229 344.727 191.982 348.232C242.433 281.363 273.216 233.456 331.577 232.823C343.549 232.692 362 235.782 374.106 237.178" fill="#2D67F5"/>
<path d="M284.022 358.026C283.641 358.026 283.251 358.019 282.847 358.005C276.145 357.767 272.856 355.356 269.675 353.026C266.68 350.831 263.85 348.757 257.948 348.547C252.075 348.345 249.112 350.218 245.973 352.209C242.622 354.333 239.155 356.529 232.422 356.214C227.438 355.979 224.786 354.388 221.72 352.545C217.31 349.754 212.426 347.783 207.306 346.726C201.217 345.367 195.578 346.093 193.458 348.432L193.026 349.003L191.41 349.382L190.893 347.542C191.061 347.279 191.248 347.029 191.454 346.795C195.319 341.666 199.076 336.656 202.727 331.762C224.46 302.702 243.23 277.605 263.098 259.982C284.67 240.848 306.427 231.81 331.567 231.537C340.468 231.442 352.753 233.079 363.589 234.535C367.436 235.049 371.068 235.536 374.256 235.906L373.956 238.459C370.746 238.089 367.102 237.603 363.243 237.089C352.492 235.651 340.31 234.013 331.593 234.116C307.116 234.383 285.899 243.214 264.821 261.909C245.149 279.357 226.452 304.357 204.803 333.305C202.195 336.792 199.536 340.342 196.827 343.954C200.486 343.269 204.25 343.363 207.87 344.229C213.263 345.338 218.408 347.41 223.054 350.346C226.05 352.145 228.214 353.443 232.543 353.646C238.456 353.927 241.433 352.039 244.579 350.043C247.914 347.928 251.364 345.745 258.044 345.978C264.747 346.216 268.035 348.626 271.217 350.958C274.213 353.153 277.042 355.226 282.943 355.436C289.343 355.665 292.387 353.956 295.914 351.98C299.343 349.845 303.189 348.455 307.198 347.9C307.824 340.542 310.325 337.028 312.966 333.318C316.491 328.801 318.832 323.485 319.778 317.849L322.321 318.331C321.302 324.326 318.815 329.982 315.081 334.801C312.423 338.534 310.128 341.758 309.706 349.126L308.541 350.331C303.189 350.857 300.137 352.566 297.187 354.219C293.839 356.095 290.387 358.026 284.022 358.026Z" fill="#040825"/>
<path d="M606.056 337.666L594.922 337.263C594.182 337.235 593.441 337.269 592.706 337.363C590.024 337.686 587.361 338.144 584.725 338.734C580.675 339.742 577.527 342.227 577.967 346.554C578.366 350.476 582.484 352.605 586.978 352.7C593.36 352.835 594.64 352.843 594.64 352.843C594.64 352.843 608.438 355.118 614.857 355.82C636.49 358.184 642.994 347.745 642.659 331.551C642.452 321.45 640.06 301.772 637.967 295.801C635.875 289.829 633.307 283.034 620.556 277.363L610.994 272.83L600.329 264.948L596.519 265.482C596.519 265.482 586.315 271.438 596.375 283.058C600.739 288.096 603.28 290.94 603.28 290.94" fill="#F5B7A6"/>
<path d="M620.674 357.441C618.684 357.435 616.696 357.32 614.719 357.098C608.626 356.433 595.797 354.335 594.531 354.128C594.123 354.128 592.396 354.101 586.954 353.986C581.242 353.866 577.115 350.93 576.683 346.683C576.225 342.177 579.043 338.826 584.415 337.487C587.099 336.886 589.813 336.42 592.545 336.091C593.35 335.989 594.162 335.952 594.973 335.981L606.108 336.384L606.013 338.954L594.878 338.552C594.209 338.526 593.54 338.557 592.876 338.642C590.244 338.958 587.63 339.405 585.044 339.983C582.698 340.568 578.83 342.181 579.261 346.427C579.601 349.769 583.399 351.342 587.012 351.418C593.291 351.551 594.641 351.56 594.654 351.56L594.858 351.578C594.996 351.6 608.694 353.855 615.005 354.545C624.505 355.584 631.215 354.19 635.518 350.283C639.638 346.544 641.552 340.43 641.371 331.579C641.17 321.734 638.804 302.084 636.752 296.226C634.757 290.531 632.496 284.078 620.033 278.538L610.225 273.859L599.986 266.294L596.988 266.714C595.098 268.003 593.788 269.972 593.335 272.204C592.847 275.203 594.198 278.57 597.361 282.219C601.665 287.188 604.226 290.056 604.252 290.084L602.315 291.79C602.29 291.762 599.717 288.883 595.397 283.894C591.703 279.629 590.152 275.544 590.785 271.754C591.083 270.246 591.686 268.814 592.56 267.545C593.433 266.276 594.558 265.197 595.866 264.374L596.34 264.208L600.151 263.674L601.105 263.916L611.669 271.722L621.117 276.202C634.571 282.182 637.134 289.498 639.193 295.377C641.351 301.545 643.747 321.287 643.957 331.522C644.154 341.152 641.964 347.907 637.262 352.175C633.376 355.702 627.918 357.441 620.674 357.441Z" fill="#040825"/>
<path d="M606.492 319.733L595.599 319.623C594.002 319.607 592.408 319.751 590.84 320.051C587.637 320.663 583.048 321.705 579.207 322.777C573.286 324.431 572.729 329.01 573.492 331.972C574.408 335.53 578.088 337.541 583.127 337.386C585.966 337.3 593.844 337.227 593.844 337.227L606.056 337.669" fill="#F5B7A6"/>
<path d="M606.008 338.95L593.796 338.508C593.776 338.508 585.96 338.579 583.167 338.667C577.485 338.856 573.297 336.402 572.237 332.286C571.25 328.456 572.391 323.342 578.856 321.537C582.36 320.558 586.969 319.481 590.594 318.786C592.248 318.471 593.928 318.321 595.611 318.338L606.504 318.448L606.478 321.019L595.584 320.908C594.074 320.892 592.567 321.027 591.084 321.31C587.208 322.064 583.363 322.965 579.556 324.011C573.687 325.649 574.389 330.272 574.744 331.649C575.499 334.576 578.615 336.232 583.084 336.098C585.906 336.012 593.752 335.939 593.83 335.939L606.102 336.381L606.008 338.95Z" fill="#040825"/>
<path d="M606.917 302.268L596.991 302.346C594.828 302.359 592.674 302.631 590.577 303.156C586.838 304.091 580.89 305.587 579.043 306.102C572.483 307.927 570.651 310.634 570.714 314.32C570.788 318.544 574.167 321.424 579.763 321.107C581.371 321.016 588.532 320.164 591.72 319.785C592.751 319.66 593.789 319.603 594.827 319.613L606.479 319.731" fill="#F5B7A6"/>
<path d="M578.928 322.416C576.353 322.535 573.83 321.673 571.875 320.006C571.096 319.281 570.476 318.403 570.054 317.428C569.632 316.454 569.418 315.403 569.424 314.342C569.337 309.596 572.202 306.672 578.697 304.864C580.482 304.368 585.972 302.983 590.263 301.909C592.461 301.36 594.719 301.075 596.986 301.06L606.906 300.982L606.926 303.553L597 303.631C594.94 303.644 592.889 303.903 590.891 304.402C587.39 305.277 581.241 306.824 579.391 307.339C573.193 309.064 571.957 311.366 572.008 314.298C571.999 315.012 572.138 315.72 572.418 316.379C572.697 317.037 573.11 317.631 573.631 318.123C574.998 319.382 577.092 319.965 579.687 319.824C581.272 319.738 588.52 318.875 591.564 318.509C592.652 318.38 593.747 318.32 594.843 318.33L606.496 318.448L606.469 321.018L594.817 320.9C593.833 320.888 592.85 320.941 591.874 321.06C588.065 321.518 581.431 322.299 579.835 322.39C579.531 322.407 579.226 322.416 578.928 322.416Z" fill="#040825"/>
<path d="M607.325 285.457L594.889 285.613C592.523 285.643 590.184 286.127 588.003 287.038C584.744 288.4 579.825 290.49 576.647 292.008C570.717 294.835 570.346 298.796 571.608 301.415C573.564 305.484 578.016 305.504 584.641 304.115C585.299 303.977 588.838 303.299 591.303 302.83C592.925 302.52 594.572 302.36 596.223 302.349L606.916 302.263" fill="#F5B7A6"/>
<path d="M578.277 306.241C574.952 306.241 572.021 305.258 570.44 301.971C568.847 298.657 569.491 293.996 576.087 290.851C579.229 289.351 584.027 287.307 587.502 285.857C589.837 284.878 592.34 284.359 594.874 284.328L607.31 284.171L607.343 286.742L594.907 286.899C592.707 286.925 590.533 287.376 588.506 288.225C585.061 289.665 580.306 291.691 577.209 293.168C573.066 295.142 571.41 298.02 572.777 300.864C574.187 303.796 577.331 304.337 584.378 302.859C584.896 302.751 587.078 302.329 591.064 301.568C592.762 301.245 594.486 301.076 596.215 301.065L606.907 300.98L606.927 303.55L596.234 303.636C594.662 303.645 593.095 303.798 591.552 304.092C587.639 304.84 585.405 305.271 584.914 305.378C582.737 305.887 580.513 306.177 578.277 306.241Z" fill="#040825"/>
</g>
<g clip-path="url(#clip2_657_3930)">
<path d="M452.736 305.266L450.373 304.499C450.455 304.247 452.444 298.234 458.873 289.847L460.844 291.36C454.702 299.373 452.754 305.209 452.736 305.266ZM467.253 283.961L465.471 282.23C469.226 278.361 473.476 274.662 478.102 271.236L479.58 273.233C475.061 276.58 470.914 280.189 467.253 283.961ZM487.705 267.769L486.455 265.621C490.985 262.981 495.934 260.967 502.031 259.283L502.692 261.678C496.807 263.304 492.045 265.239 487.705 267.769ZM512.279 259.452L511.792 257.016C513.812 256.611 515.848 256.228 517.896 255.843C521.206 255.221 524.628 254.578 528.016 253.83L528.55 256.257C525.124 257.014 521.683 257.66 518.355 258.286C516.316 258.669 514.29 259.049 512.279 259.452ZM538.259 253.726L537.523 251.352C543.056 249.635 547.937 247.54 552.446 244.947L553.683 247.102C549.015 249.787 543.969 251.953 538.259 253.726ZM562.042 241.432L560.501 239.483C561.74 238.501 562.946 237.476 564.116 236.412C566.97 233.821 569.649 231.042 572.132 228.093L574.034 229.693C571.479 232.726 568.724 235.585 565.787 238.251C564.576 239.354 563.326 240.415 562.042 241.432ZM580.039 221.597L577.958 220.241C580.922 215.68 583.409 210.825 585.379 205.754L587.694 206.655C585.663 211.886 583.098 216.893 580.039 221.597ZM590.779 197.059L588.374 196.437C589.696 191.32 590.585 185.899 591.017 180.324L593.494 180.516C593.05 186.235 592.137 191.802 590.779 197.059ZM591.322 170.503C591.252 165.251 590.812 159.75 590.015 154.156L592.475 153.806C593.286 159.505 593.734 165.111 593.806 170.47L591.322 170.503ZM588.307 144.443C587.03 138.305 585.605 133.175 584.663 129.78L584.267 128.495L586.641 127.765L587.046 129.082C588.007 132.54 589.444 137.718 590.738 143.936L588.307 144.443Z" fill="white"/>
<path d="M512.471 259.407L511.793 257.016C511.867 256.995 519.23 254.835 525.008 248.478L526.846 250.151C520.571 257.051 512.799 259.313 512.471 259.407ZM532.337 241.409L530.031 240.485C531.37 237.136 532.05 233.418 532.05 229.434C532.05 227.944 531.955 226.392 531.766 224.819L534.233 224.523C534.433 226.194 534.534 227.846 534.534 229.434C534.534 233.735 533.795 237.765 532.337 241.409ZM529.662 215.361C528.181 210.68 525.984 205.656 523.133 200.43L525.313 199.239C528.241 204.605 530.501 209.777 532.03 214.61L529.662 215.361ZM518.081 191.984C515.306 187.703 512.079 183.209 508.489 178.626L510.443 177.093C514.079 181.733 517.35 186.288 520.165 190.631L518.081 191.984ZM485.416 150.459L483.75 148.431L485.668 146.853L487.335 148.881L485.416 150.459ZM461.852 307.073L459.807 305.663C462.718 301.431 465.9 297.393 469.332 293.572L471.178 295.235C467.866 298.916 464.728 302.898 461.852 307.073ZM622.617 300.955L622.531 298.472C628.047 298.279 632.732 297.014 636.455 294.712L637.761 296.826C633.665 299.358 628.57 300.747 622.617 300.955ZM612.271 300.315C607.726 299.66 602.811 298.544 597.242 296.904L597.944 294.52C603.397 296.126 608.2 297.217 612.625 297.854L612.271 300.315ZM587.515 293.736C583.386 292.279 578.839 290.553 573.205 288.301L574.126 285.993C579.729 288.232 584.245 289.947 588.34 291.392L587.515 293.736ZM645.311 289.372L643.229 288.016C644.928 285.405 646.273 282.244 647.224 278.62C647.569 277.311 647.768 275.879 647.817 274.364L650.299 274.445C650.244 276.146 650.018 277.764 649.626 279.252C648.608 283.133 647.156 286.537 645.311 289.372ZM478.301 288.285L476.74 286.352C480.61 283.225 485.08 280.526 490.026 278.331L491.033 280.603C486.286 282.71 482.002 285.295 478.301 288.285ZM563.773 284.486C559.036 282.564 554.042 280.555 549.61 278.96L550.452 276.621C554.926 278.232 559.948 280.252 564.707 282.183L563.773 284.486ZM500.419 277.239L499.748 274.845C504.586 273.487 509.701 272.57 514.953 272.119L515.164 274.595C510.068 275.033 505.107 275.923 500.419 277.239ZM540.036 275.985C538.943 275.719 537.839 275.501 536.727 275.33C532.9 274.759 529.041 274.419 525.173 274.311L525.24 271.827C529.141 271.932 533.128 272.284 537.092 272.872C538.169 273.032 539.354 273.266 540.615 273.569L540.036 275.985ZM646.594 264.649C645.455 259.997 643.645 255.011 641.89 250.304L644.217 249.435C645.998 254.211 647.835 259.274 649.007 264.057L646.594 264.649ZM638.365 240.739C636.226 234.666 634.954 230.076 634.239 225.858L636.688 225.442C637.378 229.516 638.618 233.979 640.707 239.913L638.365 240.739ZM636.228 215.658L633.757 215.402C634.338 209.79 636.409 205.074 640.09 200.986L641.935 202.649C638.618 206.333 636.752 210.588 636.228 215.658Z" fill="white"/>
<path d="M469.961 129.634L490.411 201.624L503.141 170.057L536.625 163.585L469.961 129.634Z" fill="#61E7EF"/>
<path d="M491.562 202.089L489.216 201.964L468.766 129.974L470.523 128.527L537.187 162.476L536.859 164.804L504.039 171.148L491.562 202.089ZM471.933 132.033L490.614 197.797L501.989 169.591L502.904 168.836L532.838 163.05L471.933 132.033Z" fill="white"/>
<path d="M489.709 153.721L503.141 170.057L489.709 153.721Z" fill="#F6A4BB"/>
<path d="M488.746 154.509L490.664 152.93L504.096 169.264L502.177 170.843L488.746 154.509Z" fill="white"/>
<path d="M568.643 73.2339L566.502 137.394L582.29 117.739L606.378 125.155L568.643 73.2339Z" fill="#61E7EF"/>
<path d="M567.471 138.173L565.262 137.354L567.403 73.1926L569.648 72.5034L607.384 124.425L606.014 126.343L582.732 119.174L567.471 138.173ZM569.764 76.8889L567.868 133.711L581.323 116.959L582.656 116.55L603.183 122.871L569.764 76.8889Z" fill="white"/>
<path d="M577.893 103.401L582.29 117.739L577.893 103.401Z" fill="#F6A4BB"/>
<path d="M576.703 103.772L579.078 103.043L583.474 117.38L581.1 118.109L576.703 103.772Z" fill="white"/>
<path d="M693.821 148.676L618.213 182.241L648.77 193.962L660.628 224.479L693.821 148.676Z" fill="#61E7EF"/>
<path d="M661.767 224.978L659.472 224.929L647.813 194.925L617.77 183.401L617.711 181.106L693.319 147.541L694.96 149.175L661.767 224.978ZM621.466 182.158L649.217 192.802L649.93 193.512L660.699 221.227L691.402 151.112L621.466 182.158Z" fill="white"/>
<path d="M665.546 177.099L648.77 193.962L665.546 177.099Z" fill="#F6A4BB"/>
<path d="M647.887 193.077L664.661 176.212L666.422 177.966L649.648 194.83L647.887 193.077Z" fill="white"/>
</g>
<g clip-path="url(#clip3_657_3930)">
<path d="M745.659 499.482L743.917 497.335L741.265 496.645L738.614 495.955L736.039 496.951L733.463 497.948L731.949 500.325L730.434 502.702L730.661 505.462L730.812 508.299L732.555 510.446L734.297 512.592L736.948 513.283L739.675 514.049L742.25 512.976L744.826 511.979L746.265 509.602L747.78 507.225L747.552 504.465L747.477 501.628L745.659 499.482Z" fill="#61E7EF"/>
<path d="M739.75 515.2L733.69 513.589L729.676 508.682L729.297 502.395L732.705 497.028L738.538 494.728L744.598 496.338L748.612 501.245L748.991 507.609L745.583 512.976L739.75 515.2ZM734.978 511.596L739.598 512.823L744.068 511.059L746.643 506.996L746.34 502.165L743.31 498.408L738.69 497.182L734.22 498.945L731.645 503.009L731.948 507.839L734.978 511.596Z" fill="#040825"/>
</g>
<g clip-path="url(#clip4_657_3930)">
<path d="M777.542 555.29L777.562 552.266L775.822 549.833L774.113 547.377L771.319 546.459L768.535 545.51L765.75 546.459L762.956 547.377L761.247 549.833L759.508 552.267L759.528 555.29L759.508 558.313L761.247 560.747L762.957 563.202L765.75 564.121L768.535 565.07L771.319 564.121L774.113 563.202L775.823 560.747L777.562 558.313L777.542 555.29Z" fill="#61E7EF"/>
<path d="M768.535 566.379L762.209 564.261L758.299 558.718L758.321 555.281L758.299 551.862L762.209 546.319L768.535 544.201L774.859 546.319L778.77 551.862L778.747 555.289L778.77 558.718L774.86 564.261L768.535 566.379ZM763.703 562.143L768.535 563.761L773.366 562.143L776.354 557.908L776.336 555.28L776.354 552.671L773.366 548.435L768.535 546.821L763.703 548.438L760.715 552.674L760.732 555.284L760.715 557.911L763.703 562.143Z" fill="#040825"/>
</g>
<g clip-path="url(#clip5_657_3930)">
<path d="M199.221 234.995L199.241 231.856L197.501 229.329L195.792 226.778L192.998 225.825L190.214 224.839L187.429 225.825L184.635 226.779L182.925 229.329L181.186 231.856L181.206 234.995L181.186 238.135L182.925 240.662L184.635 243.212L187.429 244.166L190.214 245.152L192.998 244.166L195.792 243.212L197.501 240.661L199.241 238.135L199.221 234.995Z" fill="#2D67F5"/>
<path d="M190.215 246.511L183.889 244.312L179.979 238.555L180.001 234.987L179.979 231.436L183.889 225.68L190.215 223.48L196.539 225.679L200.45 231.436L200.428 234.995L200.45 238.555L196.539 244.312L190.215 246.511ZM185.383 242.113L190.215 243.793L195.046 242.113L198.034 237.715L198.017 234.987L198.034 232.276L195.046 227.878L190.215 226.198L185.382 227.878L182.395 232.277L182.412 234.987L182.395 237.715L185.383 242.113Z" fill="#040825"/>
</g>
<g clip-path="url(#clip6_657_3930)">
<path d="M118.969 332.465C119.091 332.483 119.215 332.485 119.338 332.471L120.084 332.389C120.206 332.376 120.326 332.347 120.44 332.303L121.137 332.034C121.252 331.99 121.361 331.931 121.46 331.859L122.062 331.421C122.111 331.385 122.158 331.346 122.203 331.304L153.322 301.712C153.366 301.67 153.407 301.626 153.444 301.579L153.911 301.001C153.987 300.906 154.051 300.802 154.1 300.69L154.396 300.014C154.446 299.903 154.48 299.784 154.497 299.663L154.604 298.933C154.622 298.814 154.622 298.693 154.609 298.574L154.522 297.84C154.507 297.72 154.477 297.601 154.432 297.488L154.154 296.801C154.108 296.688 154.047 296.579 153.973 296.482L153.523 295.887C153.449 295.791 153.364 295.703 153.268 295.629L152.679 295.168C152.581 295.092 152.475 295.028 152.361 294.979L151.67 294.684C151.56 294.638 151.445 294.605 151.327 294.586L150.57 294.474C150.448 294.456 150.325 294.455 150.202 294.468L149.455 294.551C149.335 294.564 149.215 294.593 149.101 294.636L148.403 294.905C148.288 294.95 148.179 295.008 148.08 295.081L147.478 295.519C147.429 295.555 147.382 295.595 147.339 295.637L116.22 325.228C116.176 325.27 116.135 325.314 116.097 325.361L115.63 325.938C115.554 326.033 115.49 326.137 115.441 326.249L115.145 326.925C115.096 327.036 115.062 327.154 115.045 327.273L114.937 328.004C114.919 328.124 114.918 328.245 114.932 328.365L115.019 329.099C115.033 329.219 115.064 329.338 115.109 329.451L115.388 330.139C115.433 330.252 115.494 330.358 115.568 330.456L116.017 331.05C116.09 331.148 116.177 331.235 116.273 331.31L116.863 331.772C116.96 331.848 117.067 331.911 117.181 331.959L117.87 332.255C117.98 332.302 118.095 332.335 118.213 332.353L118.969 332.465Z" fill="#2D67F5"/>
<path d="M151.112 295.956L150.369 295.846L149.622 295.928L148.925 296.197L148.322 296.636L143.138 301.566L137.953 306.496L132.771 311.424L127.584 316.357L122.393 321.292L117.202 326.228L116.736 326.805L116.439 327.482L116.332 328.211L116.419 328.945L116.697 329.633L117.147 330.227L117.737 330.689L118.427 330.984L119.17 331.094L119.917 331.013L120.614 330.743L121.217 330.304L126.401 325.375L131.586 320.444L136.768 315.516L141.955 310.584L147.146 305.648L152.337 300.713L152.803 300.136L153.1 299.459L153.207 298.729L153.12 297.995L152.842 297.308L152.392 296.713L151.802 296.251L151.112 295.956ZM151.541 293.216C151.777 293.253 152.007 293.319 152.227 293.414L152.917 293.709C153.145 293.806 153.358 293.933 153.553 294.085L154.143 294.547C154.336 294.697 154.507 294.872 154.654 295.065L155.104 295.66C155.252 295.855 155.374 296.07 155.465 296.296L155.743 296.983C155.834 297.209 155.895 297.446 155.923 297.687L156.01 298.421C156.039 298.661 156.036 298.902 156.001 299.141L155.894 299.871C155.858 300.111 155.791 300.345 155.693 300.568L155.396 301.245C155.299 301.468 155.172 301.678 155.018 301.868L154.551 302.445C154.475 302.539 154.393 302.628 154.306 302.712L149.115 307.647L143.924 312.583L138.737 317.515L133.555 322.443L128.37 327.374L123.186 332.303C123.098 332.386 123.005 332.464 122.907 332.535L122.305 332.974C122.106 333.119 121.889 333.238 121.659 333.326L120.961 333.596C120.732 333.684 120.491 333.743 120.246 333.769L119.5 333.851C119.257 333.877 119.009 333.873 118.766 333.837L118.023 333.727L117.999 333.723C117.763 333.686 117.533 333.62 117.314 333.526L116.623 333.231C116.396 333.133 116.182 333.007 115.987 332.855L115.398 332.393C115.206 332.243 115.034 332.069 114.887 331.875L114.437 331.28C114.289 331.084 114.167 330.87 114.076 330.643L113.797 329.956C113.706 329.73 113.645 329.494 113.616 329.252L113.529 328.518C113.501 328.278 113.504 328.036 113.539 327.797L113.647 327.068C113.682 326.828 113.75 326.594 113.847 326.371L114.144 325.694C114.241 325.471 114.369 325.262 114.522 325.072L114.989 324.494C115.065 324.401 115.147 324.312 115.235 324.228L120.426 319.292L125.616 314.357L130.803 309.424L135.985 304.497L141.17 299.566L146.355 294.637C146.442 294.553 146.536 294.476 146.634 294.404L147.236 293.965C147.435 293.821 147.652 293.703 147.882 293.614L148.579 293.345C148.808 293.256 149.048 293.198 149.294 293.171L150.04 293.09C150.284 293.063 150.53 293.067 150.773 293.103L151.517 293.213L151.541 293.216Z" fill="#040825"/>
</g>
<g clip-path="url(#clip7_657_3930)">
<path d="M121.526 393.511C132.174 379.234 142.809 364.947 153.432 350.652C153.694 350.336 162.292 338.6 162.395 338.971C163.17 338.48 164.073 338.223 164.993 338.232C165.912 338.242 166.809 338.517 167.575 339.025L167.564 339.038L167.575 339.025L167.564 339.038L167.575 339.025L167.564 339.038C168.468 339.754 169.066 340.784 169.238 341.921C169.409 343.058 169.141 344.218 168.488 345.166C161.356 354.694 151.677 367.769 144.546 377.3C139.24 384.454 133.92 391.597 128.587 398.731C127.869 399.631 126.836 400.227 125.695 400.397C124.554 400.568 123.391 400.302 122.439 399.652L122.45 399.638L122.439 399.652L122.45 399.638L122.439 399.652L122.45 399.638C121.545 398.923 120.947 397.893 120.775 396.756C120.604 395.618 120.872 394.459 121.526 393.511Z" fill="#6319CF"/>
<path d="M125.007 401.75C123.817 401.756 122.654 401.394 121.68 400.713L121.673 400.671L121.665 400.681C120.491 399.76 119.713 398.43 119.487 396.958C119.262 395.487 119.606 393.986 120.451 392.758L120.472 392.728C130.484 379.309 142.391 363.311 152.378 349.872C152.488 349.731 152.881 349.198 153.464 348.413C159.773 339.907 161.17 338.022 161.978 337.696C162.956 337.15 164.066 336.885 165.186 336.931C166.306 336.976 167.391 337.33 168.321 337.953L168.332 338.021L168.35 337.997C169.532 338.911 170.315 340.242 170.54 341.716C170.765 343.189 170.413 344.692 169.557 345.915C165.976 350.706 161.777 356.351 157.58 361.996C153.382 367.641 149.167 373.308 145.597 378.078C140.291 385.232 134.972 392.377 129.64 399.512C129.095 400.217 128.392 400.787 127.588 401.175C126.784 401.563 125.9 401.76 125.007 401.75ZM123.236 398.617C123.908 399.058 124.721 399.234 125.516 399.111C126.312 398.988 127.033 398.575 127.539 397.952C132.87 390.818 138.188 383.675 143.492 376.522C147.064 371.751 151.269 366.096 155.474 360.442C159.679 354.788 163.874 349.147 167.438 344.385C167.889 343.715 168.071 342.901 167.948 342.103C167.825 341.306 167.406 340.583 166.774 340.079V340.058C166.227 339.714 165.593 339.532 164.946 339.532C164.299 339.532 163.665 339.714 163.118 340.058H163.112C162.161 341.08 157.23 347.735 155.571 349.967C154.927 350.837 154.499 351.411 154.443 351.479C143.841 365.756 133.223 380.021 122.589 394.274C122.138 394.944 121.954 395.759 122.073 396.557C122.192 397.355 122.606 398.081 123.233 398.592L123.236 398.617ZM162.184 339.711L162.039 340.219C162.217 340.269 162.404 340.28 162.586 340.251C162.768 340.222 162.942 340.154 163.095 340.051L162.184 339.711Z" fill="#040825"/>
</g>
<g clip-path="url(#clip8_657_3930)">
<path d="M725.045 547.384C711.677 535.615 698.298 523.858 684.909 512.113C684.616 511.826 673.614 502.307 673.993 502.235C673.565 501.421 673.382 500.501 673.466 499.585C673.55 498.67 673.897 497.798 674.465 497.076L674.478 497.087L674.465 497.076L674.478 497.087L674.465 497.076L674.478 497.087C675.264 496.244 676.339 495.732 677.486 495.653C678.634 495.574 679.768 495.935 680.66 496.662C689.58 504.542 701.829 515.248 710.75 523.127C717.451 528.995 724.141 534.875 730.82 540.768C731.659 541.557 732.169 542.635 732.247 543.786C732.325 544.937 731.965 546.075 731.24 546.971L731.227 546.959L731.24 546.971L731.227 546.959L731.24 546.971L731.227 546.959C730.441 547.803 729.366 548.316 728.219 548.395C727.071 548.473 725.937 548.112 725.045 547.384Z" fill="#6319CF"/>
<path d="M733.54 544.581C733.45 545.768 732.995 546.898 732.238 547.814L732.195 547.817L732.204 547.826C731.192 548.921 729.802 549.589 728.318 549.695C726.833 549.8 725.364 549.335 724.209 548.394L724.181 548.371C711.616 537.306 696.634 524.143 684.048 513.101C683.917 512.98 683.417 512.544 682.682 511.9C674.714 504.923 672.949 503.378 672.689 502.546C672.224 501.528 672.05 500.4 672.186 499.287C672.322 498.175 672.763 497.122 673.459 496.246L673.528 496.24L673.505 496.22C674.512 495.116 675.902 494.443 677.389 494.338C678.875 494.234 680.345 494.706 681.494 495.658C685.98 499.615 691.266 504.257 696.553 508.898C701.84 513.539 707.147 518.199 711.612 522.142C718.314 528.01 725.004 533.89 731.684 539.782C732.343 540.383 732.854 541.129 733.176 541.962C733.498 542.795 733.623 543.692 733.54 544.581ZM730.275 546.093C730.768 545.459 731.01 544.663 730.951 543.86C730.893 543.057 730.54 542.305 729.959 541.75C723.281 535.859 716.591 529.981 709.891 524.115C705.425 520.169 700.129 515.519 694.834 510.87C689.539 506.222 684.256 501.584 679.798 497.646C679.167 497.142 678.37 496.895 677.565 496.953C676.76 497.011 676.006 497.37 675.452 497.959L675.432 497.957C675.045 498.475 674.811 499.092 674.759 499.737C674.707 500.382 674.837 501.028 675.136 501.602L675.135 501.608C676.076 502.638 682.311 508.091 684.401 509.926C685.216 510.638 685.754 511.112 685.817 511.173C699.189 522.895 712.548 534.633 725.893 546.386C726.525 546.89 727.321 547.139 728.127 547.085C728.932 547.031 729.689 546.677 730.249 546.094L730.275 546.093ZM674.714 502.504L675.209 502.69C675.273 502.517 675.299 502.332 675.285 502.148C675.271 501.964 675.217 501.785 675.127 501.624L674.714 502.504Z" fill="#040825"/>
</g>
<g clip-path="url(#clip9_657_3930)">
<path d="M763.355 388.714L756.271 383.911L749.124 379.319L742.129 374.503L734.98 369.908L727.914 365.084L726.874 373.614L725.606 382.057L724.604 390.535L723.335 398.982L722.265 407.524L721.625 398.956L720.782 390.468L720.208 381.962L719.365 373.472L718.753 364.905L711.459 369.445L704.087 373.754L696.857 378.292L689.483 382.603L682.16 387.126L688.447 381.245L694.542 375.256L700.822 369.463L706.92 363.471L713.223 357.613L705.167 354.745L697.243 351.673L689.229 348.855L681.303 345.782L673.241 342.882L681.72 344.116L690.164 345.134L698.569 346.417L707.016 347.436L715.487 348.697L712.736 340.581L710.228 332.442L707.464 324.39L704.954 316.248L702.224 308.108L706.511 315.527L710.945 322.786L715.145 330.18L719.581 337.441L723.841 344.873L728.466 337.619L733.261 330.542L737.83 323.319L742.626 316.239L747.284 308.988L744.151 317.008L741.235 325.041L738.069 332.977L735.153 341.014L731.994 349.019L740.513 348.091L749.002 347.404L757.461 346.45L765.952 345.763L774.491 344.862L766.296 347.442L758.227 350.201L750.078 352.703L742.006 355.463L733.807 358.014L739.805 364.109L745.594 370.331L751.575 376.364L757.367 382.587L763.355 388.714Z" fill="#6319CF"/>
<path d="M762.633 389.786L755.549 384.983L748.429 380.408L741.399 375.569L734.284 370.997L728.943 367.351L728.16 373.771L726.887 382.251L725.891 390.688L724.616 399.175L723.551 407.685L720.978 407.617L720.337 399.05L719.497 390.594L718.92 382.047L718.081 373.597L717.619 367.138L712.146 370.544L704.743 374.871L697.547 379.39L690.138 383.721L682.842 388.229L681.277 386.18L687.564 380.298L693.637 374.33L699.945 368.51L706.013 362.546L710.779 358.116L704.736 355.964L696.779 352.88L688.803 350.076L680.838 346.989L672.806 344.101L673.426 341.6L681.904 342.835L690.316 343.849L698.762 345.138L707.169 346.151L713.583 347.106L711.512 340.996L708.992 332.824L706.242 324.81L703.719 316.629L700.999 308.518L703.344 307.461L707.631 314.88L712.049 322.112L716.27 329.541L720.685 336.767L723.9 342.374L727.378 336.921L732.193 329.813L736.738 322.625L741.557 315.51L746.198 308.286L748.491 309.461L745.358 317.479L742.453 325.484L739.273 333.457L736.371 341.456L733.987 347.498L740.373 346.802L748.897 346.113L757.316 345.162L765.848 344.472L774.354 343.573L774.882 346.097L766.687 348.676L758.649 351.425L750.461 353.94L742.428 356.688L736.22 358.619L740.728 363.201L746.542 369.448L752.495 375.451L758.315 381.704L764.282 387.807L762.633 389.786ZM726.631 364.925L728.642 364.014L735.708 368.838L742.827 373.413L749.856 378.252L754.108 380.984L750.629 377.246L744.676 371.243L738.858 364.992L732.885 358.922L733.421 356.777L741.62 354.226L749.658 351.477L757.846 348.962L762.609 347.333L757.567 347.741L749.149 348.691L740.619 349.382L732.136 350.307L730.791 348.541L733.949 340.536L736.853 332.533L740.033 324.559L741.741 319.854L738.901 324.047L734.355 331.236L729.537 338.348L724.932 345.571L722.719 345.517L718.459 338.085L714.042 330.855L709.821 323.426L707.194 319.127L708.7 324.01L711.45 332.024L713.972 340.201L716.713 348.283L715.3 349.978L706.828 348.717L698.417 347.703L689.971 346.413L684.954 345.81L689.694 347.647L697.67 350.451L705.632 353.537L713.655 356.392L714.104 358.562L707.801 364.421L701.729 370.388L695.421 376.208L691.845 379.723L696.205 377.174L703.4 372.657L710.807 368.327L718.07 363.806L720.045 364.816L720.656 373.383L721.496 381.837L722.073 390.384L722.569 395.376L723.325 390.342L724.321 381.905L725.595 373.42L726.631 364.925Z" fill="#040825"/>
</g>
<g clip-path="url(#clip10_657_3930)">
<path d="M150.916 555.898L143.832 551.095L136.685 546.503L129.69 541.687L122.54 537.092L115.475 532.268L114.435 540.798L113.166 549.241L112.165 557.719L110.895 566.166L109.826 574.708L109.185 566.14L108.342 557.652L107.768 549.146L106.925 540.656L106.314 532.089L99.0196 536.629L91.6478 540.938L84.4176 545.476L77.0439 549.787L69.721 554.31L76.0074 548.429L82.1029 542.44L88.3828 536.647L94.4807 530.655L100.784 524.797L92.7274 521.929L84.8035 518.857L76.7899 516.039L68.8636 512.966L60.8017 510.066L69.2805 511.3L77.7248 512.318L86.1296 513.602L94.5762 514.62L103.047 515.881L100.296 507.765L97.7881 499.626L95.0241 491.574L92.5143 483.432L89.7842 475.292L94.0712 482.712L98.5052 489.97L102.706 497.364L107.141 504.625L111.401 512.057L116.027 504.803L120.822 497.726L125.39 490.503L130.187 483.423L134.845 476.172L131.711 484.192L128.796 492.226L125.63 500.161L122.713 508.198L119.555 516.203L128.074 515.275L136.562 514.588L145.021 513.634L153.513 512.947L162.051 512.046L153.857 514.626L145.788 517.385L137.639 519.887L129.566 522.647L121.367 525.198L127.365 531.294L133.155 537.515L139.136 543.548L144.928 549.771L150.916 555.898Z" fill="#61E7EF"/>
<path d="M150.193 556.97L143.109 552.167L135.989 547.592L128.96 542.753L121.844 538.181L116.503 534.535L115.721 540.955L114.447 549.435L113.451 557.872L112.177 566.359L111.112 574.869L108.538 574.801L107.898 566.234L107.058 557.778L106.48 549.231L105.641 540.781L105.18 534.322L99.7061 537.728L92.3039 542.055L85.1073 546.574L77.6984 550.905L70.4025 555.413L68.8376 553.364L75.1241 547.482L81.1971 541.514L87.5057 535.694L93.574 529.73L98.34 525.3L92.2965 523.149L84.3392 520.064L76.3635 517.26L68.3982 514.173L60.3665 511.285L60.9861 508.785L69.4649 510.019L77.8768 511.033L86.3228 512.323L94.7294 513.335L101.143 514.29L99.0722 508.181L96.5527 500.008L93.8021 491.994L91.2797 483.813L88.5594 475.702L90.9048 474.645L95.1918 482.065L99.6094 489.296L103.831 496.725L108.246 503.951L111.461 509.558L114.939 504.105L119.753 496.998L124.299 489.809L129.118 482.694L133.758 475.47L136.051 476.645L132.918 484.663L130.014 492.668L126.834 500.641L123.931 508.64L121.548 514.682L127.934 513.986L136.458 513.297L144.876 512.347L153.408 511.656L161.915 510.757L162.442 513.281L154.248 515.86L146.209 518.609L138.021 521.124L129.988 523.872L123.78 525.804L128.288 530.385L134.103 536.632L140.055 542.635L145.875 548.888L151.842 554.991L150.193 556.97ZM114.192 532.109L116.203 531.198L123.268 536.022L130.387 540.597L137.417 545.436L141.669 548.168L138.19 544.43L132.237 538.427L126.419 532.176L120.446 526.106L120.982 523.961L129.181 521.41L137.218 518.661L145.406 516.146L150.17 514.517L145.127 514.925L136.709 515.875L128.18 516.566L119.696 517.491L118.351 515.725L121.51 507.72L124.414 499.717L127.594 491.743L129.302 487.038L126.461 491.231L121.915 498.42L117.098 505.532L112.492 512.755L110.28 512.701L106.02 505.269L101.603 498.039L97.3814 490.611L94.7546 486.311L96.2603 491.194L99.0109 499.208L101.533 507.385L104.273 515.467L102.86 517.162L94.3884 515.901L85.9777 514.887L77.5317 513.598L72.515 512.994L77.255 514.831L85.2308 517.635L93.1926 520.721L101.215 523.576L101.665 525.746L95.3618 531.605L89.2899 537.572L82.9813 543.392L79.4051 546.907L83.766 544.358L90.9606 539.841L98.3672 535.511L105.631 530.99L107.605 532L108.217 540.567L109.056 549.021L109.634 557.569L110.13 562.561L110.886 557.526L111.882 549.089L113.156 540.604L114.192 532.109Z" fill="#040825"/>
</g>
<g clip-path="url(#clip11_657_3930)">
<path d="M800.539 429.335C801.879 436.167 803.738 443.73 805.032 450.57C811.87 451.865 819.43 453.722 826.258 455.067C819.429 456.413 811.869 458.27 805.032 459.565C803.736 466.406 801.883 473.969 800.534 480.799C799.193 473.823 797.334 466.098 796.04 459.113C789.206 457.963 781.64 456.268 774.814 455.067C781.645 453.578 789.2 451.558 796.04 450.118C797.336 443.422 799.19 436.021 800.539 429.335Z" fill="#2D67F5"/>
<path d="M800.539 429.335C801.879 436.167 803.738 443.73 805.032 450.57C811.87 451.865 819.43 453.722 826.258 455.067C819.429 456.413 811.869 458.27 805.032 459.565C803.736 466.406 801.883 473.969 800.534 480.799C799.193 473.823 797.334 466.098 796.04 459.113C789.206 457.963 781.64 456.268 774.814 455.067C781.645 453.578 789.2 451.558 796.04 450.118C797.336 443.422 799.19 436.021 800.539 429.335Z" fill="#2D67F5"/>
<path d="M801.954 481.081L799.113 481.073C798.489 477.826 797.736 474.344 797.009 470.976C796.248 467.452 795.463 463.818 794.805 460.37C791.415 459.781 787.841 459.068 784.376 458.377C781.103 457.723 777.719 457.049 774.564 456.493L774.506 453.653C777.671 452.963 781.063 452.141 784.342 451.346C787.818 450.504 791.403 449.636 794.805 448.902C795.47 445.555 796.266 442.028 797.038 438.608C797.757 435.42 798.5 432.123 799.121 429.049L801.959 429.057C802.583 432.237 803.335 435.648 804.063 438.946C804.825 442.397 805.611 445.956 806.269 449.333C809.662 449.995 813.238 450.785 816.707 451.551C819.986 452.275 823.376 453.024 826.539 453.647V456.487C823.38 457.11 819.994 457.857 816.72 458.58C813.248 459.347 809.667 460.139 806.269 460.801C805.603 464.219 804.807 467.822 804.036 471.317C803.317 474.573 802.574 477.939 801.954 481.081ZM781.859 454.925C782.891 455.128 783.922 455.334 784.941 455.538C788.728 456.293 792.642 457.074 796.281 457.687L797.463 458.85C798.148 462.546 799.007 466.521 799.837 470.365C800.075 471.463 800.315 472.573 800.552 473.684C800.771 472.683 800.992 471.683 801.21 470.693C802.049 466.888 802.918 462.955 803.611 459.296L804.764 458.143C808.401 457.454 812.314 456.59 816.096 455.755C817.129 455.527 818.171 455.296 819.215 455.069C818.166 454.839 817.119 454.608 816.083 454.38C812.304 453.545 808.397 452.682 804.763 451.994L803.61 450.841C802.926 447.223 802.068 443.334 801.237 439.572C800.999 438.493 800.759 437.403 800.52 436.312C800.3 437.295 800.079 438.276 799.86 439.248C799.021 442.969 798.153 446.818 797.461 450.396L796.339 451.538C792.705 452.302 788.8 453.249 785.024 454.163C783.977 454.414 782.918 454.671 781.859 454.925Z" fill="#040825"/>
</g>
<defs>
<clipPath id="clip0_657_3930">
<rect width="428.196" height="20.4715" fill="white" transform="translate(239.688 571.496)"/>
</clipPath>
<clipPath id="clip1_657_3930">
<rect width="494.728" height="395.782" fill="white" transform="translate(181.686 188.508)"/>
</clipPath>
<clipPath id="clip2_657_3930">
<rect width="243.952" height="234.569" fill="white" transform="translate(450.373 72.5034)"/>
</clipPath>
<clipPath id="clip3_657_3930">
<rect width="19.6185" height="20.4715" fill="white" transform="translate(729.297 494.728)"/>
</clipPath>
<clipPath id="clip4_657_3930">
<rect width="20.4715" height="22.1775" fill="white" transform="translate(758.299 544.201)"/>
</clipPath>
<clipPath id="clip5_657_3930">
<rect width="20.4715" height="23.0304" fill="white" transform="translate(179.979 223.48)"/>
</clipPath>
<clipPath id="clip6_657_3930">
<rect width="37.5311" height="45.2079" fill="white" transform="matrix(-0.987961 -0.1547 -0.1547 0.987961 156.807 294.041)"/>
</clipPath>
<clipPath id="clip7_657_3930">
<rect width="51.1788" height="64.8264" fill="white" transform="translate(119.418 336.927)"/>
</clipPath>
<clipPath id="clip8_657_3930">
<rect width="51.1788" height="64.8264" fill="white" transform="translate(668.477 544.905) rotate(-85.3573)"/>
</clipPath>
<clipPath id="clip9_657_3930">
<rect width="102.358" height="99.7986" fill="white" transform="translate(654.895 330.276) rotate(-25.2639)"/>
</clipPath>
<clipPath id="clip10_657_3930">
<rect width="102.358" height="99.7986" fill="white" transform="translate(42.4551 497.46) rotate(-25.2639)"/>
</clipPath>
<clipPath id="clip11_657_3930">
<rect width="52.0317" height="52.0317" fill="white" transform="translate(774.506 429.049)"/>
</clipPath>
</defs>
</svg>
